<svg width="18" height="18" viewBox="0 0 18 18" fill="none" xmlns="http://www.w3.org/2000/svg">
<path fill-rule="evenodd" clip-rule="evenodd" d="M2.56635 0.739219C1.55779 0.739219 0.740195 1.55682 0.740195 2.56537C0.740195 3.57393 1.55779 4.39153 2.56635 4.39153C3.57491 4.39153 4.3925 3.57393 4.3925 2.56537C4.3925 1.55682 3.57491 0.739219 2.56635 0.739219ZM0.700195 2.56537C0.700195 1.53472 1.5357 0.699219 2.56635 0.699219C3.59032 0.699219 4.42167 1.52394 4.4324 2.54537H16.7202C16.7312 2.54537 16.7402 2.55433 16.7402 2.56537C16.7402 2.57642 16.7312 2.58537 16.7202 2.58537H4.4324C4.42167 3.60681 3.59032 4.43153 2.56635 4.43153C1.5357 4.43153 0.700195 3.59602 0.700195 2.56537ZM10.5662 6.89307C9.55768 6.89307 8.74008 7.71067 8.74008 8.71923C8.74008 9.72779 9.55768 10.5454 10.5662 10.5454C11.5748 10.5454 12.3924 9.72779 12.3924 8.71923C12.3924 7.71067 11.5748 6.89307 10.5662 6.89307ZM8.70019 8.69923C8.71091 7.67779 9.54226 6.85307 10.5662 6.85307C11.5969 6.85307 12.4324 7.68858 12.4324 8.71923C12.4324 9.74988 11.5969 10.5854 10.5662 10.5854C9.54226 10.5854 8.71091 9.76066 8.70019 8.73923L0.720195 8.73922C0.70915 8.73922 0.700195 8.73026 0.700195 8.71922C0.700195 8.70817 0.70915 8.69922 0.720195 8.69922L8.70019 8.69923ZM12.4693 8.71922C12.4693 8.70817 12.4783 8.69922 12.4893 8.69922H16.7202C16.7312 8.69922 16.7402 8.70817 16.7402 8.71922C16.7402 8.73026 16.7312 8.73922 16.7202 8.73922H12.4893C12.4783 8.73922 12.4693 8.73026 12.4693 8.71922ZM0.700195 14.8731C0.700195 13.8424 1.5357 13.0069 2.56635 13.0069C3.59032 13.0069 4.42167 13.8316 4.4324 14.8531H16.72C16.731 14.8531 16.74 14.862 16.74 14.8731C16.74 14.8841 16.731 14.8931 16.72 14.8931H4.4324C4.42167 15.9145 3.59032 16.7392 2.56635 16.7392C1.5357 16.7392 0.700195 15.9037 0.700195 14.8731ZM2.56635 13.0469C1.55779 13.0469 0.740195 13.8645 0.740195 14.8731C0.740195 15.8816 1.55779 16.6992 2.56635 16.6992C3.57491 16.6992 4.3925 15.8816 4.3925 14.8731C4.3925 13.8645 3.57491 13.0469 2.56635 13.0469Z" stroke="white" stroke-opacity="0.66" stroke-width="1.4" stroke-linecap="round" stroke-linejoin="round"/>
</svg>
