<svg width="20" height="18" viewBox="0 0 20 18" fill="none" xmlns="http://www.w3.org/2000/svg">
<path d="M9.6059 13.1142V13.1116M8.35301 1.0017C9.13071 0.651726 10.0211 0.651726 10.7988 1.0017C11.2427 1.20144 11.6355 1.60175 12.0891 2.25751C12.5427 2.91315 13.055 3.8213 13.7391 5.03378L16.5199 9.96285C17.1837 11.1396 17.6809 12.0209 17.9988 12.7285C18.3167 13.4362 18.4538 13.9672 18.4003 14.4437C18.3067 15.2789 17.8647 16.0357 17.1833 16.5277C16.7946 16.8083 16.2648 16.9498 15.4922 17.0207C14.7197 17.0915 13.7078 17.0916 12.3567 17.0916H6.79509C5.44403 17.0916 4.43212 17.0915 3.65962 17.0207C2.88704 16.9498 2.35721 16.8083 1.9685 16.5277C1.2871 16.0357 0.845126 15.2789 0.751461 14.4437C0.698027 13.9672 0.835111 13.4362 1.15301 12.7285C1.47087 12.0209 1.96806 11.1396 2.63193 9.96286L5.41274 5.03378C6.09678 3.8213 6.60915 2.91315 7.06267 2.25751C7.51627 1.60175 7.90914 1.20144 8.35301 1.0017ZM10.8152 0.96522C10.0271 0.610552 9.12474 0.610552 8.33659 0.96522C7.88252 1.16955 7.48451 1.57735 7.02977 2.23475C6.57508 2.89209 6.06184 3.80183 5.37846 5.01313L2.59653 9.9442C1.93333 11.1197 1.43522 12.0026 1.11652 12.7121C0.797767 13.4218 0.657058 13.9608 0.71171 14.4481C0.806632 15.2945 1.25454 16.0615 1.94508 16.5601C2.34266 16.8471 2.88131 16.9895 3.65597 17.0605C4.43051 17.1316 5.44427 17.1316 6.79401 17.1316H12.3578C13.7075 17.1316 14.7213 17.1316 15.4958 17.0605C16.2705 16.9895 16.8091 16.8471 17.2067 16.5601C17.8973 16.0615 18.3452 15.2945 18.4401 14.4481C18.4947 13.9608 18.354 13.4218 18.0353 12.7121C17.7166 12.0026 17.2185 11.1197 16.5552 9.94412L13.7733 5.01313C13.09 3.80183 12.5767 2.89208 12.122 2.23475C11.6673 1.57735 11.2693 1.16955 10.8152 0.96522ZM9.5959 6.07422C9.57381 6.07422 9.5559 6.09213 9.5559 6.11422V10.1142C9.5559 10.1363 9.57381 10.1542 9.5959 10.1542C9.61799 10.1542 9.6359 10.1363 9.6359 10.1142V6.11422C9.6359 6.09213 9.61799 6.07422 9.5959 6.07422ZM9.6059 12.572C9.58381 12.572 9.5659 12.5899 9.5659 12.612V13.0969C9.55993 13.1004 9.5559 13.1068 9.5559 13.1142C9.5559 13.1363 9.57381 13.1542 9.5959 13.1542H9.6059C9.62799 13.1542 9.6459 13.1363 9.6459 13.1142V12.612C9.6459 12.5899 9.62799 12.572 9.6059 12.572Z" stroke="white" stroke-opacity="0.66" stroke-width="1.4" stroke-linecap="round" stroke-linejoin="round"/>
</svg>
