<svg width="20" height="20" viewBox="0 0 20 20" fill="none" xmlns="http://www.w3.org/2000/svg">
<path fill-rule="evenodd" clip-rule="evenodd" d="M0 10C0 4.47715 4.47715 0 10 0C15.5228 0 20 4.47715 20 10C20 11.2667 18.9731 12.2936 17.7064 12.2936L17.0839 12.2936C16.6425 12.2935 16.3243 12.2934 16.0427 12.3305C14.1078 12.5852 12.5852 14.1078 12.3305 16.0427C12.2934 16.3243 12.2935 16.6425 12.2936 17.0839L12.2936 17.7064C12.2936 18.9731 11.2667 20 10 20C4.47715 20 0 15.5228 0 10ZM7.79817 2.38532C6.63279 2.38532 5.68807 3.33004 5.68807 4.49541C5.68807 5.66078 6.63279 6.6055 7.79817 6.6055C8.96354 6.6055 9.90826 5.66078 9.90826 4.49541C9.90826 3.33004 8.96354 2.38532 7.79817 2.38532ZM14.4037 3.48624C13.2383 3.48624 12.2936 4.43096 12.2936 5.59633C12.2936 6.7617 13.2383 7.70642 14.4037 7.70642C15.569 7.70642 16.5138 6.7617 16.5138 5.59633C16.5138 4.43096 15.569 3.48624 14.4037 3.48624ZM4.49541 7.88991C3.33004 7.88991 2.38532 8.83463 2.38532 10C2.38532 11.1654 3.33004 12.1101 4.49541 12.1101C5.66078 12.1101 6.6055 11.1654 6.6055 10C6.6055 8.83463 5.66078 7.88991 4.49541 7.88991Z" fill="white" fill-opacity="0.66"/>
</svg>
