<svg width="18" height="18" viewBox="0 0 18 18" fill="none" xmlns="http://www.w3.org/2000/svg">
<path fill-rule="evenodd" clip-rule="evenodd" d="M5.29353 1.46813C6.93008 0.694745 8.78013 0.497716 10.5429 0.909083C12.3056 1.32045 13.8773 2.31602 15.0025 3.73391C16.1277 5.15181 16.7401 6.90863 16.7402 8.71872V9.51872C16.7402 10.1605 16.4852 10.7761 16.0314 11.2299C15.5776 11.6838 14.962 11.9387 14.3202 11.9387C13.6784 11.9387 13.0628 11.6838 12.609 11.2299C12.1552 10.7761 11.9002 10.1605 11.9002 9.51872V9.2277C11.6562 10.7642 10.3254 11.9387 8.7202 11.9387C6.94185 11.9387 5.5002 10.4971 5.5002 8.71872C5.5002 6.94036 6.94185 5.49872 8.7202 5.49872C10.3254 5.49872 11.6562 6.67323 11.9002 8.20973V5.51872C11.9002 5.50767 11.9092 5.49872 11.9202 5.49872C11.9312 5.49872 11.9402 5.50767 11.9402 5.51872V9.51872C11.9402 10.1499 12.1909 10.7553 12.6373 11.2016C13.0836 11.648 13.689 11.8987 14.3202 11.8987C14.9514 11.8987 15.5568 11.648 16.0031 11.2016C16.4494 10.7553 16.7002 10.1499 16.7002 9.51872V8.71872C16.7001 6.91766 16.0907 5.1696 14.9711 3.75878C13.8516 2.34796 12.2877 1.35735 10.5338 0.948037C8.77983 0.538721 6.93901 0.734767 5.31062 1.5043C3.68224 2.27383 2.36206 3.57159 1.56474 5.18655C0.767429 6.80152 0.539878 8.63871 0.919089 10.3994C1.2983 12.1601 2.26197 13.7407 3.6534 14.8843C5.04484 16.0278 6.7822 16.6671 8.583 16.698C10.3838 16.729 12.1421 16.1499 13.572 15.0548C13.5808 15.0481 13.5934 15.0498 13.6001 15.0586C13.6068 15.0673 13.6051 15.0799 13.5964 15.0866C12.1593 16.1871 10.3921 16.7692 8.58231 16.738C6.77249 16.7069 5.02642 16.0645 3.62801 14.9152C2.2296 13.7659 1.2611 12.1773 0.879985 10.4078C0.498874 8.63831 0.727565 6.79191 1.52888 5.16884C2.33018 3.54578 3.65698 2.24152 5.29353 1.46813ZM11.9002 8.71872C11.9002 6.96245 10.4765 5.53872 8.7202 5.53872C6.96394 5.53872 5.5402 6.96245 5.5402 8.71872C5.5402 10.475 6.96394 11.8987 8.7202 11.8987C10.4765 11.8987 11.9002 10.475 11.9002 8.71872Z" stroke="white" stroke-opacity="0.66" stroke-width="1.4" stroke-linecap="round" stroke-linejoin="round"/>
</svg>
