<svg width="20" height="21" viewBox="0 0 20 21" fill="none" xmlns="http://www.w3.org/2000/svg">
<path d="M18.6841 9.15489L9.66852 18.1705C7.62608 20.213 4.31448 20.213 2.27203 18.1705C0.22965 16.1281 0.229611 12.8164 2.27203 10.774L11.2877 1.7584L11.4175 1.63535C12.7836 0.401001 14.8929 0.441818 16.2095 1.7584C17.5685 3.11741 17.5685 5.32127 16.2095 6.68028L7.54742 15.3424C6.87182 16.018 5.77577 16.018 5.10016 15.3424C4.42461 14.6668 4.42457 13.5707 5.10016 12.8951L12.7017 5.29453C12.7095 5.28675 12.7095 5.27403 12.7017 5.26621C12.6979 5.26238 12.6931 5.26042 12.688 5.26035L12.6734 5.26621L5.07184 12.8668C4.38063 13.558 4.38067 14.6795 5.07184 15.3707C5.76307 16.0619 6.88452 16.0619 7.57574 15.3707L16.2379 6.7086C17.6124 5.33397 17.6124 3.10471 16.2379 1.73008C14.9063 0.398531 12.773 0.357018 11.3912 1.60508L11.2593 1.73008L2.24371 10.7457C0.18567 12.8037 0.185709 16.1408 2.24371 18.1988C4.30178 20.2569 7.63877 20.2569 9.69684 18.1988L18.7125 9.18321M18.6841 9.15489L18.6978 9.16953L18.7125 9.18321M18.6841 9.15489L18.7125 9.18321M18.6841 9.15489C18.692 9.14715 18.7047 9.1471 18.7125 9.15489C18.7202 9.16268 18.7202 9.1754 18.7125 9.18321" stroke="white" stroke-opacity="0.66" stroke-width="1.4" stroke-linecap="round" stroke-linejoin="round"/>
</svg>
