<svg width="20" height="20" viewBox="0 0 20 20" fill="none" xmlns="http://www.w3.org/2000/svg">
<path d="M9.74302 0.00293764C6.92654 0.0773353 4.4151 1.31087 2.64642 3.24634C2.51677 3.38822 2.29431 3.39796 2.1579 3.26258L0.944315 2.05819C0.865998 1.98142 0.766709 1.92955 0.658961 1.90912C0.551213 1.88869 0.439827 1.90061 0.338843 1.94338C0.237858 1.98615 0.151794 2.05785 0.0914959 2.14946C0.0311981 2.24106 -0.000634612 2.34847 9.58749e-06 2.45813V7.2241C9.58749e-06 7.53516 0.244418 7.77957 0.555484 7.77957H5.32145C5.82138 7.77957 6.06579 7.17966 5.71028 6.83527L4.19857 5.3138C4.07917 5.19363 4.06961 5.00206 4.18191 4.87524C5.61187 3.26034 7.68338 2.22483 9.99854 2.22483C14.7978 2.22483 18.5973 6.60197 17.6196 11.5679C17.0197 14.6452 14.4979 17.1004 11.4206 17.6448C7.19895 18.4002 3.44395 15.7117 2.47742 11.9123C2.34411 11.4457 1.89973 11.1124 1.41091 11.1124C0.688797 11.1124 0.144433 11.7901 0.322184 12.4789C1.42202 16.8005 5.33256 20 9.99854 20C15.6199 20 20.1526 15.3673 19.9971 9.71262C19.8415 4.2912 15.1644 -0.130376 9.74302 0.00293764ZM12.2204 10.0015C12.2204 8.77943 11.2206 7.77957 9.99854 7.77957C8.7765 7.77957 7.77665 8.77943 7.77665 10.0015C7.77665 11.2235 8.7765 12.2234 9.99854 12.2234C11.2206 12.2234 12.2204 11.2235 12.2204 10.0015Z" fill="white" fill-opacity="0.66"/>
</svg>
