<svg width="21" height="18" viewBox="0 0 21 18" fill="none" xmlns="http://www.w3.org/2000/svg">
<path d="M15.2002 11.6992L9.2002 5.69922M15.2002 5.69922L9.2002 11.6992M5.6002 1.49922C5.78649 1.25083 6.02806 1.04922 6.30577 0.910364C6.58348 0.771509 6.88971 0.699219 7.2002 0.699219H18.2002C18.7306 0.699219 19.2393 0.909932 19.6144 1.28501C19.9895 1.66008 20.2002 2.16879 20.2002 2.69922V14.6992C20.2002 15.2297 19.9895 15.7384 19.6144 16.1134C19.2393 16.4885 18.7306 16.6992 18.2002 16.6992H7.2002C6.88971 16.6992 6.58348 16.6269 6.30577 16.4881C6.02806 16.3492 5.78649 16.1476 5.6002 15.8992L1.1002 9.89922C0.840551 9.55303 0.700195 9.13196 0.700195 8.69922C0.700195 8.26648 0.840551 7.84541 1.1002 7.49922L5.6002 1.49922Z" stroke="white" stroke-opacity="0.66" stroke-width="1.4" stroke-linecap="round" stroke-linejoin="round"/>
</svg>
