<svg width="16" height="20" viewBox="0 0 16 20" fill="none" xmlns="http://www.w3.org/2000/svg">
<path d="M14 7C13.8993 5.81157 13.4066 4.69028 12.5993 3.81237C12.0012 3.16195 11.2555 2.67243 10.431 2.38121C9.94006 2.20777 9.6018 1.74257 9.49705 1.23249C9.36986 0.613117 8.99149 0 8 0C7.00851 0 6.63014 0.613117 6.50295 1.23249C6.3982 1.74257 6.05994 2.20777 5.56895 2.38121C4.74449 2.67243 3.9988 3.16195 3.40068 3.81237C2.59337 4.69028 2.10066 5.81157 2 7V12.5858C2 12.851 1.89464 13.1054 1.70711 13.2929L0.207106 14.7929C0.0744983 14.9255 0 15.1054 0 15.2929C0 15.6834 0.316583 16 0.707107 16H15.2929C15.6834 16 16 15.6834 16 15.2929C16 15.1054 15.9255 14.9255 15.7929 14.7929L14.2929 13.2929C14.1054 13.1054 14 12.851 14 12.5858V7ZM8 20C8.79565 20 9.55871 19.6839 10.1213 19.1213C10.4454 18.7972 10.6877 18.4066 10.8349 17.9816C11.0156 17.4597 10.5523 17 10 17H6C5.44772 17 4.98442 17.4597 5.16514 17.9816C5.31232 18.4066 5.55459 18.7972 5.87868 19.1213C6.44129 19.6839 7.20435 20 8 20Z" fill="white" fill-opacity="0.66"/>
</svg>
