<svg width="18" height="22" viewBox="0 0 18 22" fill="none" xmlns="http://www.w3.org/2000/svg">
<path fill-rule="evenodd" clip-rule="evenodd" d="M1.3999 1.41983C1.3999 1.4091 1.40886 1.40039 1.4199 1.40039H10.6507C13.2113 1.40039 15.2861 3.47716 15.2861 6.0378C15.2861 8.39404 13.5293 10.3406 11.2538 10.6363H11.8045C14.3651 10.6363 16.4399 12.7131 16.4399 15.2737C16.4399 17.8344 14.3651 19.9112 11.8045 19.9112H1.4199C1.40886 19.9112 1.3999 19.9025 1.3999 19.8917V1.41983ZM1.4399 10.6752V19.8723H11.8045C14.3419 19.8723 16.3999 17.814 16.3999 15.2737C16.3999 12.7335 14.3419 10.6752 11.8045 10.6752H1.4399ZM1.4399 10.6363H10.6507C13.1881 10.6363 15.2461 8.57803 15.2461 6.0378C15.2461 3.49758 13.1881 1.43928 10.6507 1.43928H1.4399V10.6363Z" stroke="white" stroke-opacity="0.66" stroke-width="2.8" stroke-linecap="round" stroke-linejoin="round"/>
</svg>
