<svg width="20" height="20" viewBox="0 0 20 20" fill="none" xmlns="http://www.w3.org/2000/svg">
<path fill-rule="evenodd" clip-rule="evenodd" d="M0 10C0 4.477 4.477 0 10 0C15.523 0 20 4.477 20 10C20 15.523 15.523 20 10 20C4.477 20 0 15.523 0 10ZM11 5C11 4.73478 10.8946 4.48043 10.7071 4.29289C10.5196 4.10536 10.2652 4 10 4C9.73478 4 9.48043 4.10536 9.29289 4.29289C9.10536 4.48043 9 4.73478 9 5V8.764C9.00002 9.32105 9.15513 9.86709 9.44797 10.341C9.7408 10.8148 10.1598 11.1978 10.658 11.447L13.553 12.894C13.6709 12.9576 13.8003 12.9968 13.9337 13.0094C14.067 13.022 14.2015 13.0077 14.3292 12.9673C14.4569 12.9269 14.5751 12.8613 14.677 12.7743C14.7788 12.6874 14.8622 12.5808 14.9221 12.461C14.982 12.3412 15.0172 12.2107 15.0256 12.077C15.0341 11.9433 15.0156 11.8094 14.9713 11.683C14.927 11.5566 14.8578 11.4404 14.7677 11.3413C14.6776 11.2422 14.5686 11.1622 14.447 11.106L11.553 9.658C11.3869 9.57501 11.2472 9.44742 11.1496 9.28953C11.0519 9.13163 11.0001 8.94966 11 8.764V5Z" fill="white" fill-opacity="0.66"/>
</svg>
