<svg width="23" height="22" viewBox="0 0 23 22" fill="none" xmlns="http://www.w3.org/2000/svg">
<path d="M7.91765 10.6992C7.91765 10.7544 7.87288 10.7992 7.81765 10.7992C7.76242 10.7992 7.71765 10.7544 7.71765 10.6992M7.91765 10.6992C7.91765 10.644 7.87288 10.5992 7.81765 10.5992C7.76242 10.5992 7.71765 10.644 7.71765 10.6992M7.91765 10.6992L7.81765 10.75M7.71765 10.6992L7.81765 10.6641M11.1177 10.6992C11.1177 10.7544 11.0729 10.7992 11.0177 10.7992C10.9624 10.7992 10.9177 10.7544 10.9177 10.6992M11.1177 10.6992C11.1177 10.644 11.0729 10.5992 11.0177 10.5992C10.9624 10.5992 10.9177 10.644 10.9177 10.6992M11.1177 10.6992L11.0177 10.6562M10.9177 10.6992L11.0177 10.7383M14.3177 10.6992C14.3177 10.7544 14.2729 10.7992 14.2177 10.7992C14.1624 10.7992 14.1177 10.7544 14.1177 10.6992M14.3177 10.6992C14.3177 10.644 14.2729 10.5992 14.2177 10.5992C14.1624 10.5992 14.1177 10.644 14.1177 10.6992M14.3177 10.6992H14.2177M14.1177 10.6992L14.2002 10.6992M6.69271 0.699219C5.10413 0.699219 3.8174 1.98594 3.8174 3.57453V8.02715C3.8174 8.72883 3.35647 9.39041 2.73591 9.87802C2.11554 10.3655 1.34151 10.6743 0.725133 10.6743C0.71136 10.6743 0.700195 10.6854 0.700195 10.6992C0.700195 10.713 0.71136 10.7242 0.725133 10.7242C1.34151 10.7242 2.11554 11.033 2.73591 11.5204C3.35647 12.008 3.8174 12.6696 3.8174 13.3713V17.8239C3.8174 19.4125 5.10413 20.6992 6.69271 20.6992C6.70649 20.6992 6.71765 20.6881 6.71765 20.6743C6.71765 20.6605 6.70649 20.6493 6.69271 20.6493C5.13167 20.6493 3.86728 19.3849 3.86728 17.8239V13.3713C3.86728 12.6478 3.39304 11.9733 2.76672 11.4812C2.24328 11.0699 1.60951 10.7826 1.04744 10.6992C1.60951 10.6158 2.24328 10.3285 2.76672 9.91724C3.39304 9.42511 3.86728 8.75065 3.86728 8.02715V3.57453C3.86728 2.01349 5.13167 0.749095 6.69271 0.749095C6.70649 0.749095 6.71765 0.73793 6.71765 0.724157C6.71765 0.710384 6.70649 0.699219 6.69271 0.699219ZM15.3426 20.6992C16.9312 20.6992 18.2179 19.4125 18.2179 17.8239V13.3713C18.2179 12.6696 18.6788 12.008 19.2994 11.5204C19.9198 11.033 20.6938 10.7242 21.3102 10.7242C21.3239 10.7242 21.3351 10.713 21.3351 10.6992C21.3351 10.6854 21.3239 10.6743 21.3102 10.6743C20.6938 10.6743 19.9198 10.3655 19.2994 9.87802C18.6788 9.39041 18.2179 8.72883 18.2179 8.02715V3.57453C18.2179 1.98595 16.9312 0.699219 15.3426 0.699219C15.3288 0.699219 15.3177 0.710385 15.3177 0.724157C15.3177 0.73793 15.3288 0.749098 15.3426 0.749098C16.9036 0.749098 18.168 2.01349 18.168 3.57453L18.168 8.02715C18.168 8.75066 18.6423 9.42511 19.2686 9.91724C19.792 10.3285 20.4258 10.6158 20.9879 10.6992C20.4258 10.7826 19.792 11.0699 19.2686 11.4812C18.6423 11.9733 18.168 12.6478 18.168 13.3713V17.8239C18.168 19.3849 16.9036 20.6493 15.3426 20.6493C15.3288 20.6493 15.3177 20.6605 15.3177 20.6743C15.3177 20.6881 15.3288 20.6992 15.3426 20.6992Z" stroke="white" stroke-opacity="0.66" stroke-width="1.4" stroke-linecap="round"/>
</svg>
