<svg width="22" height="22" viewBox="0 0 22 22" fill="none" xmlns="http://www.w3.org/2000/svg">
<path fill-rule="evenodd" clip-rule="evenodd" d="M19.7299 1.70967C18.436 0.415735 16.3381 0.415735 15.0441 1.70967C13.7502 3.00361 13.7502 5.1015 15.0441 6.39543C16.3381 7.68937 18.436 7.68937 19.7299 6.39543C21.0238 5.1015 21.0238 3.00361 19.7299 1.70967ZM15.0159 1.68139C16.3254 0.371829 18.4486 0.371829 19.7582 1.68139C21.0678 2.99095 21.0678 5.11416 19.7582 6.42372C18.4486 7.73327 16.3254 7.73327 15.0159 6.42372C13.7063 5.11416 13.7063 2.99095 15.0159 1.68139ZM6.05353 1.69922H9.60909C9.62013 1.69922 9.62909 1.70817 9.62909 1.71922V1.83055C9.62909 1.84159 9.62013 1.85055 9.60909 1.85055H6.05353C5.11978 1.85055 4.42067 1.85056 3.86583 1.89589C3.31123 1.94121 2.90254 2.0317 2.54931 2.21168C1.92586 2.52934 1.41899 3.03622 1.10133 3.65966C0.921349 4.01289 0.830857 4.42158 0.785544 4.97618C0.740212 5.53102 0.740197 6.23013 0.740197 7.16388V15.2527C0.740242 16.1425 0.741649 16.815 0.785543 17.3522C0.830856 17.9068 0.921347 18.3155 1.10133 18.6688C1.41899 19.2922 1.92586 19.7991 2.54931 20.1167C2.90254 20.2967 3.31123 20.3872 3.86583 20.4325C4.42067 20.4779 5.11978 20.4779 6.05353 20.4779H14.2758C15.2095 20.4779 15.9086 20.4779 16.4635 20.4325C17.0181 20.3872 17.4267 20.2967 17.78 20.1167C18.4034 19.7991 18.9103 19.2922 19.228 18.6688C19.4079 18.3155 19.4984 17.9068 19.5437 17.3522C19.5891 16.7974 19.5891 16.0983 19.5891 15.1645L19.5891 11.7192C19.5891 11.7082 19.598 11.6992 19.6091 11.6992C19.6201 11.6992 19.6291 11.7082 19.6291 11.7192L19.6291 15.1645C19.6291 15.2013 19.6291 15.2387 19.6291 15.2748C19.6291 16.2074 19.6291 16.9091 19.5836 17.4657C19.5381 18.0228 19.4469 18.4373 19.2636 18.7972C18.9421 19.4281 18.4291 19.9411 17.7981 20.2626C17.4383 20.446 17.0238 20.5371 16.4667 20.5826C15.9101 20.6281 15.2093 20.6281 14.2767 20.6281H6.05353C5.12091 20.6281 4.41923 20.6281 3.86257 20.5826C3.3055 20.5371 2.89096 20.446 2.53115 20.2626C1.90018 19.9411 1.38718 19.4281 1.06569 18.7972C0.882356 18.4373 0.791192 18.0228 0.745677 17.4657C0.700197 16.9091 0.700197 16.2083 0.700197 15.2757V15.2544C0.700195 15.225 0.700195 15.1953 0.700195 15.1655L0.700197 7.16388C0.700197 7.16331 0.700197 7.16179 0.700197 7.16123V7.05255C0.700197 6.11994 0.700197 5.41825 0.745677 4.8616C0.791192 4.30452 0.882356 3.88998 1.06569 3.53017C1.38718 2.8992 1.90018 2.38621 2.53115 2.06471C2.89096 1.88138 3.3055 1.79021 3.86258 1.7447C4.41923 1.69922 5.12092 1.69922 6.05353 1.69922ZM0.985503 3.81651C1.01005 3.75657 1.03672 3.69835 1.06569 3.6415C1.38718 3.01053 1.90018 2.49753 2.53115 2.17604C2.89096 1.99271 3.3055 1.90154 3.86258 1.85603C4.41923 1.81055 5.11996 1.81055 6.05258 1.81055H9.58909V1.73922H6.05353C5.11978 1.73922 4.42067 1.73923 3.86583 1.78457C3.31123 1.82988 2.90254 1.92037 2.54931 2.10035C1.92586 2.41801 1.41899 2.92489 1.10133 3.54833C1.05766 3.63403 1.01927 3.72299 0.985503 3.81651ZM0.988859 18.5201C1.0218 18.6102 1.0591 18.6961 1.10133 18.779C1.41899 19.4024 1.92586 19.9093 2.54931 20.227C2.90254 20.407 3.31123 20.4975 3.86583 20.5428C4.42067 20.5881 5.11978 20.5881 6.05353 20.5881H14.2758C15.2095 20.5881 15.9086 20.5881 16.4635 20.5428C17.0181 20.4975 17.4267 20.407 17.78 20.227C18.4034 19.9093 18.9103 19.4024 19.228 18.779C19.2702 18.6961 19.3075 18.6102 19.3404 18.52C19.3168 18.5771 19.2913 18.6326 19.2636 18.6869C18.9421 19.3179 18.4291 19.8309 17.7981 20.1524C17.4383 20.3357 17.0238 20.4269 16.4667 20.4724C15.9101 20.5179 15.2093 20.5179 14.2767 20.5179H6.05353C5.12091 20.5179 4.41923 20.5179 3.86257 20.4724C3.3055 20.4269 2.89096 20.3357 2.53115 20.1524C1.90018 19.8309 1.38718 19.3179 1.06569 18.6869C1.03803 18.6326 1.01248 18.5771 0.988859 18.5201Z" stroke="white" stroke-opacity="0.66" stroke-width="1.4" stroke-linecap="round" stroke-linejoin="round"/>
</svg>
