<svg width="21" height="16" viewBox="0 0 21 16" fill="none" xmlns="http://www.w3.org/2000/svg">
<path d="M11.171 2.91339C11.0944 2.76032 11.1511 2.57671 11.2746 2.45825C11.5455 2.1984 11.7143 1.83125 11.7143 1.42857C11.7143 0.639286 11.075 0 10.2857 0C9.49643 0 8.85714 0.639286 8.85714 1.42857C8.85714 1.83398 9.02581 2.19943 9.29666 2.45847C9.42034 2.57675 9.47698 2.76032 9.40045 2.91339L7.48928 6.73571C7.16429 7.38572 6.32143 7.57143 5.75357 7.11786L2.82053 4.77077C2.68161 4.6596 2.66007 4.45932 2.73277 4.29694C2.81248 4.11891 2.85714 3.92181 2.85714 3.71429C2.85714 2.925 2.21786 2.28571 1.42857 2.28571C0.639286 2.28571 0 2.925 0 3.71429C0 4.50357 0.639286 5.14286 1.42857 5.14286C1.44305 5.14286 1.45545 5.15321 1.45804 5.16745L3.08571 14.1214C3.28214 15.2071 4.22857 16 5.33571 16H15.2357C16.3393 16 17.2857 15.2107 17.4857 14.1214L19.1134 5.16745C19.116 5.15321 19.1284 5.14286 19.1429 5.14286C19.9321 5.14286 20.5714 4.50357 20.5714 3.71429C20.5714 2.925 19.9321 2.28571 19.1429 2.28571C18.3536 2.28571 17.7143 2.925 17.7143 3.71429C17.7143 3.92181 17.7589 4.11891 17.8387 4.29694C17.9114 4.45932 17.8898 4.6596 17.7509 4.77077L14.8179 7.11786C14.25 7.57143 13.4071 7.38572 13.0821 6.73571L11.171 2.91339Z" fill="white" fill-opacity="0.66"/>
</svg>
