<svg width="22" height="22" viewBox="0 0 22 22" fill="none" xmlns="http://www.w3.org/2000/svg">
<path fill-rule="evenodd" clip-rule="evenodd" d="M3.8174 3.57453C3.8174 1.98594 5.10413 0.699219 6.69271 0.699219C6.70649 0.699219 6.71765 0.710384 6.71765 0.724156C6.71765 0.737929 6.70649 0.749094 6.69271 0.749094C5.13167 0.749094 3.86728 2.01349 3.86728 3.57453V8.02715C3.86728 8.75065 3.39304 9.42511 2.76672 9.91724C2.24328 10.3285 1.60951 10.6158 1.04744 10.6992C1.60951 10.7826 2.24328 11.0699 2.76672 11.4812C3.39304 11.9733 3.86728 12.6478 3.86728 13.3713V17.8239C3.86728 19.3849 5.13167 20.6493 6.69271 20.6493C6.70649 20.6493 6.71765 20.6605 6.71765 20.6743C6.71765 20.6881 6.70649 20.6992 6.69271 20.6992C5.10413 20.6992 3.8174 19.4125 3.8174 17.8239V13.3713C3.8174 12.6696 3.35647 12.008 2.73591 11.5204C2.11554 11.033 1.34151 10.7242 0.725133 10.7242C0.71136 10.7242 0.700195 10.713 0.700195 10.6992C0.700195 10.6854 0.71136 10.6743 0.725133 10.6743C1.34151 10.6743 2.11554 10.3655 2.73591 9.87802C3.35647 9.39041 3.8174 8.72883 3.8174 8.02715V3.57453Z" stroke="white" stroke-opacity="0.66" stroke-width="1.4" stroke-linecap="round"/>
<path fill-rule="evenodd" clip-rule="evenodd" d="M9.21142 5.16306C9.21142 5.14929 9.22258 5.13812 9.23635 5.13812H20.4583C20.4721 5.13812 20.4832 5.14929 20.4832 5.16306C20.4832 5.17683 20.4721 5.188 20.4583 5.188H9.23635C9.22258 5.188 9.21142 5.17683 9.21142 5.16306Z" stroke="white" stroke-opacity="0.66" stroke-width="1.4" stroke-linecap="round"/>
<path fill-rule="evenodd" clip-rule="evenodd" d="M9.21142 10.6992C9.21142 10.6854 9.22258 10.6743 9.23635 10.6743H20.4583C20.4721 10.6743 20.4832 10.6854 20.4832 10.6992C20.4832 10.713 20.4721 10.7242 20.4583 10.7242H9.23635C9.22258 10.7242 9.21142 10.713 9.21142 10.6992Z" stroke="white" stroke-opacity="0.66" stroke-width="1.4" stroke-linecap="round"/>
<path fill-rule="evenodd" clip-rule="evenodd" d="M9.21142 16.2354C9.21142 16.2216 9.22258 16.2104 9.23635 16.2104H16.7176C16.7314 16.2104 16.7426 16.2216 16.7426 16.2354C16.7426 16.2492 16.7314 16.2603 16.7176 16.2603H9.23635C9.22258 16.2603 9.21142 16.2492 9.21142 16.2354Z" stroke="white" stroke-opacity="0.66" stroke-width="1.4" stroke-linecap="round"/>
</svg>
