<svg width="20" height="20" viewBox="0 0 20 20" fill="none" xmlns="http://www.w3.org/2000/svg">
<path d="M3.47222 20C2.55133 20 1.66816 19.6342 1.01699 18.983C0.365824 18.3318 1.66996e-06 17.4487 1.58946e-06 16.5278L0 3.47222C-8.05068e-08 2.55133 0.365822 1.66816 1.01699 1.01699C1.66816 0.365823 2.55133 7.19474e-07 3.47222 6.38967e-07L10.7811 0C10.9634 -1.59295e-08 11.1111 0.147746 11.1111 0.33L11.1111 5.41667C11.1111 6.33756 11.4769 7.22073 12.1281 7.8719C12.7793 8.52307 13.6624 8.88889 14.5833 8.88889L19.67 8.88889C19.8523 8.88889 20 9.03663 20 9.21889V16.5278C20 17.4487 19.6342 18.3318 18.983 18.983C18.3318 19.6342 17.4487 20 16.5278 20L3.47222 20ZM19.4483 7.05088C19.578 7.25258 19.4208 7.5 19.181 7.5L14.5833 7.5C14.0308 7.5 13.5009 7.28051 13.1102 6.88981C12.7195 6.4991 12.5 5.9692 12.5 5.41667V0.819225C12.5 0.579344 12.7475 0.422118 12.9492 0.551978C13.1572 0.685913 13.3509 0.841788 13.5267 1.01722L18.9828 6.47278C19.1583 6.64878 19.3143 6.84263 19.4483 7.05088Z" fill="white" fill-opacity="0.66"/>
</svg>
