<svg width="20" height="12" viewBox="0 0 20 12" fill="none" xmlns="http://www.w3.org/2000/svg">
<path d="M2.4 4.8C1.08 4.8 2.5702e-07 3.72 3.14719e-07 2.4C3.72418e-07 1.08 1.08 -5.7699e-08 2.4 0C3.72 5.7699e-08 4.8 1.08 4.8 2.4C4.8 3.72 3.72 4.8 2.4 4.8ZM12 2.4C12 1.08 10.92 3.72422e-07 9.6 3.14723e-07C8.28 2.57024e-07 7.2 1.08 7.2 2.4C7.2 3.72 8.28 4.8 9.6 4.8C10.92 4.8 12 3.72 12 2.4ZM19.2 2.4C19.2 1.08 18.12 6.87141e-07 16.8 6.29442e-07C15.48 5.71743e-07 14.4 1.08 14.4 2.4C14.4 3.72 15.48 4.8 16.8 4.8C18.12 4.8 19.2 3.72 19.2 2.4ZM14.4 9.6C14.4 10.92 15.48 12 16.8 12C18.12 12 19.2 10.92 19.2 9.6C19.2 8.28 18.12 7.2 16.8 7.2C15.48 7.2 14.4 8.28 14.4 9.6ZM12 9.6C12 8.28 10.92 7.2 9.6 7.2C8.28 7.2 7.2 8.28 7.2 9.6C7.2 10.92 8.28 12 9.6 12C10.92 12 12 10.92 12 9.6ZM4.8 9.6C4.8 8.28 3.72 7.2 2.4 7.2C1.08 7.2 5.7699e-08 8.28 0 9.6C-5.7699e-08 10.92 1.08 12 2.4 12C3.72 12 4.8 10.92 4.8 9.6Z" fill="white" fill-opacity="0.66"/>
</svg>
