<svg width="27" height="24" viewBox="0 0 27 24" fill="none" xmlns="http://www.w3.org/2000/svg">
<path fill-rule="evenodd" clip-rule="evenodd" d="M16.6906 3.37049C16.2392 2.9768 15.0661 2.64474 13.5052 3.62699C8.51837 6.76863 4.17377 12.4355 2.70436 14.4895C2.59039 14.6488 2.44615 14.784 2.2799 14.8876C2.11364 14.9911 1.92862 15.0609 1.7354 15.0929C1.54217 15.125 1.34453 15.1186 1.15376 15.0743C0.962983 15.0299 0.782812 14.9484 0.623531 14.8345C0.464249 14.7205 0.328977 14.5763 0.225438 14.41C0.121898 14.2437 0.052119 14.0587 0.0200844 13.8655C-0.0119502 13.6723 -0.005613 13.4746 0.0387342 13.2839C0.0830814 13.0931 0.16457 12.9129 0.278548 12.7536C1.76983 10.6718 6.39876 4.57744 11.9165 1.10176C14.3045 -0.401451 16.969 -0.337823 18.6471 1.11767C19.4842 1.84342 20.0072 2.88732 20.0151 4.07239C20.0231 5.24752 19.526 6.41271 18.6193 7.44865C15.7819 10.6937 12.0338 15.0939 10.459 17.2414C10.2522 17.5237 10.2383 17.7385 10.2562 17.8618C10.2761 18.0009 10.3497 18.1322 10.4749 18.2256C10.6485 18.345 10.8615 18.3927 11.0695 18.3589C11.3478 18.3251 11.7853 18.1719 12.3182 17.6848C12.7675 17.2712 13.2348 16.8298 13.716 16.3784C15.1973 14.9846 16.798 13.4754 18.4006 12.2963C20.0668 11.0715 22.0154 10.7315 23.4928 11.6342C24.2305 12.0855 24.7495 12.8073 24.9304 13.6703C25.1094 14.5253 24.9384 15.4161 24.5069 16.2353C24.0456 17.1141 23.6439 17.7464 23.284 18.3151L23.2562 18.3608C22.9105 18.889 22.5887 19.4323 22.2918 19.9893C22.2259 20.1156 22.1875 20.2545 22.1793 20.3968C22.1711 20.539 22.1932 20.6814 22.2441 20.8145C22.2918 20.9338 22.3376 20.9915 22.3634 21.0153C22.5463 21.0292 22.7054 20.9835 22.9579 20.7887C23.3119 20.5123 23.7076 20.045 24.3021 19.2656C24.5423 18.9513 24.8975 18.7452 25.2896 18.6929C25.6817 18.6405 26.0786 18.746 26.3929 18.9862C26.7072 19.2264 26.9132 19.5816 26.9656 19.9737C27.0179 20.3658 26.9124 20.7627 26.6722 21.077C26.1055 21.8186 25.4911 22.5961 24.7872 23.1449C24.0078 23.7493 23.0633 24.1172 21.916 23.9661C20.6574 23.803 19.8322 22.8327 19.4683 21.9041C19.2612 21.3737 19.17 20.805 19.2009 20.2364C19.2318 19.6678 19.384 19.1123 19.6473 18.6074C20.0251 17.8836 20.383 17.3209 20.723 16.7861L20.7648 16.7184C21.1167 16.1637 21.4647 15.6129 21.8683 14.8454C22.0373 14.5233 22.0214 14.3384 22.0095 14.2807C22.0065 14.2593 21.9985 14.2389 21.986 14.2213C21.9736 14.2037 21.9571 14.1893 21.9379 14.1793C21.8524 14.1256 21.2479 13.9049 20.1683 14.7002C18.7247 15.7601 17.3189 17.0863 15.8734 18.4463C15.3663 18.9236 14.8533 19.4067 14.3324 19.8839C12.4971 21.5661 10.2622 21.7908 8.68937 20.6137C7.15832 19.4684 6.73877 17.2732 8.05309 15.4797C9.71736 13.209 13.5549 8.70928 16.3744 5.48612C16.9133 4.86973 17.0346 4.38258 17.0326 4.09029C17.0327 3.95263 17.0022 3.81667 16.9434 3.6922C16.8846 3.56773 16.799 3.45785 16.6926 3.37049H16.6906ZM22.3833 21.0332L22.3773 21.0292C22.3813 21.0292 22.3833 21.0312 22.3833 21.0332Z" fill="white" fill-opacity="0.66"/>
</svg>
