<svg width="18" height="18" viewBox="0 0 18 18" fill="none" xmlns="http://www.w3.org/2000/svg">
<path d="M6.72016 6.30401C6.72016 6.07472 6.53428 5.88884 6.30499 5.88884C6.07569 5.88884 5.88982 6.07472 5.88982 6.30401C5.88982 6.5333 6.07569 6.71918 6.30499 6.71918C6.53428 6.71918 6.72016 6.5333 6.72016 6.30401ZM6.72016 6.30401L6.2002 6.19922M10.6802 6.30401C10.6802 6.07472 10.8661 5.88884 11.0954 5.88884C11.3247 5.88884 11.5106 6.07472 11.5106 6.30401C11.5106 6.5333 11.3247 6.71918 11.0954 6.71918C10.8661 6.71918 10.6802 6.5333 10.6802 6.30401ZM10.6802 6.30401L11.0954 6.19922M0.732131 8.69922C0.732131 4.29858 4.29956 0.731155 8.7002 0.731155C13.1008 0.731155 16.6683 4.29858 16.6683 8.69922C16.6683 13.0999 13.1008 16.6673 8.7002 16.6673C4.29955 16.6673 0.732131 13.0999 0.732131 8.69922ZM8.7002 0.699219C4.28192 0.699219 0.700195 4.28094 0.700195 8.69922C0.700195 13.1175 4.28192 16.6992 8.7002 16.6992C13.1185 16.6992 16.7002 13.1175 16.7002 8.69922C16.7002 4.28094 13.1185 0.699219 8.7002 0.699219ZM5.81581 10.1584C5.81016 10.1522 5.801 10.1522 5.79534 10.1584C5.78969 10.1645 5.79029 10.1751 5.79594 10.1812C6.27836 10.7041 7.24689 11.7538 8.70019 11.7538C10.1535 11.7538 11.1226 10.7034 11.605 10.1805C11.6107 10.1744 11.6107 10.1645 11.605 10.1584C11.5994 10.1522 11.5902 10.1522 11.5846 10.1584C11.1019 10.6815 10.1409 11.7224 8.70019 11.7224C7.25948 11.7224 6.29846 10.6815 5.81581 10.1584Z" stroke="white" stroke-opacity="0.66" stroke-width="1.4" stroke-linecap="round"/>
</svg>
