<svg width="20" height="20" viewBox="0 0 20 20" fill="none" xmlns="http://www.w3.org/2000/svg">
<path fill-rule="evenodd" clip-rule="evenodd" d="M12.7002 0.719219C12.7002 0.708173 12.7092 0.699219 12.7202 0.699219H18.7202C18.7312 0.699219 18.7402 0.708173 18.7402 0.719219V6.71922C18.7402 6.73026 18.7312 6.73922 18.7202 6.73922C18.7092 6.73922 18.7002 6.73026 18.7002 6.71922V0.767504L11.7343 7.73336C11.7265 7.74117 11.7139 7.74117 11.7061 7.73336C11.6982 7.72555 11.6982 7.71289 11.7061 7.70508L18.6719 0.739219H12.7202C12.7092 0.739219 12.7002 0.730264 12.7002 0.719219ZM7.73434 11.7051C7.74215 11.7129 7.74215 11.7256 7.73434 11.7334L0.768481 18.6992H6.7202C6.73124 18.6992 6.7402 18.7082 6.7402 18.7192C6.7402 18.7303 6.73124 18.7392 6.7202 18.7392H0.720195C0.714891 18.7392 0.709804 18.7371 0.706053 18.7334C0.702302 18.7296 0.700195 18.7245 0.700195 18.7192L0.700196 12.7192C0.700196 12.7082 0.70915 12.6992 0.720195 12.6992C0.731241 12.6992 0.740196 12.7082 0.740196 12.7192L0.740195 18.6709L7.70605 11.7051C7.71386 11.6973 7.72653 11.6973 7.73434 11.7051Z" stroke="white" stroke-opacity="0.66" stroke-width="1.4" stroke-linecap="round" stroke-linejoin="round"/>
</svg>
