<svg width="20" height="20" viewBox="0 0 20 20" fill="none" xmlns="http://www.w3.org/2000/svg">
<path d="M0 3.86466V1.40892C0 0.630793 0.626801 0 1.4 0H18.6C19.3732 0 20 0.630793 20 1.40892V3.86466C20 4.61199 19.705 5.32872 19.1799 5.85716L13.3201 11.7543C12.795 12.2827 12.5 12.9995 12.5 13.7468V17.257C12.5 17.7907 12.2004 18.2785 11.7261 18.5172L9.5 19.6242C7.5 20.6305 7.5 19.4114 7.5 18.364V13.7468C7.5 12.9995 7.205 12.2827 6.6799 11.7543L0.820101 5.85716C0.294999 5.32872 0 4.61199 0 3.86466Z" fill="white" fill-opacity="0.66"/>
</svg>
