<svg width="22" height="22" viewBox="0 0 22 22" fill="none" xmlns="http://www.w3.org/2000/svg">
<path fill-rule="evenodd" clip-rule="evenodd" d="M19.3562 5.72697C16.6025 0.95736 10.5036 -0.67683 5.73398 2.07691C2.86319 3.73435 1.12827 6.60364 0.802351 9.66561C0.801182 9.6766 0.79133 9.68455 0.780347 9.68338C0.769363 9.68221 0.761407 9.67236 0.762576 9.66138C1.08979 6.58723 2.83165 3.70638 5.71397 2.04227C10.5027 -0.722517 16.6261 0.918228 19.3908 5.70697L19.6847 6.216C19.6903 6.22557 19.687 6.2378 19.6774 6.24332C19.6678 6.24884 19.6556 6.24557 19.6501 6.236L19.3562 5.72697ZM20.7254 3.56307C20.736 3.56592 20.7424 3.57689 20.7395 3.58756L19.879 6.79922C19.8776 6.80434 19.8742 6.80871 19.8696 6.81136C19.865 6.81402 19.8596 6.81473 19.8545 6.81336L16.6428 5.9528C16.6321 5.94994 16.6258 5.93897 16.6287 5.92831C16.6315 5.91764 16.6425 5.9113 16.6532 5.91416L19.8455 6.76955L20.7009 3.57721C20.7037 3.56654 20.7147 3.56021 20.7254 3.56307ZM20.6583 11.7422C20.669 11.7428 20.6773 11.7516 20.6773 11.7622V11.7652C20.3501 14.8393 18.6081 17.7202 15.7258 19.3843C10.937 22.1491 4.81369 20.5083 2.0489 15.7196L1.75502 15.2106C1.74949 15.201 1.75277 15.1888 1.76234 15.1832C1.7719 15.1777 1.78414 15.181 1.78966 15.1906L2.08106 15.6953C2.08199 15.6963 2.08282 15.6975 2.08355 15.6987C4.83728 20.4683 10.9362 22.1025 15.7058 19.3488C18.5766 17.6913 20.3115 14.8221 20.6374 11.7601C20.6385 11.7495 20.6477 11.7417 20.6583 11.7422ZM1.56144 14.6265C1.5643 14.6158 1.57527 14.6095 1.58594 14.6123L4.7976 15.4729C4.80666 15.4753 4.81259 15.4836 4.81242 15.4926C4.81247 15.4945 4.81225 15.4964 4.81174 15.4983C4.80888 15.509 4.79791 15.5153 4.78724 15.5124L1.5949 14.657L0.739519 17.8494C0.73666 17.8601 0.725693 17.8664 0.715024 17.8635C0.705941 17.8611 0.700002 17.8528 0.7002 17.8438C0.700159 17.8419 0.700377 17.84 0.700882 17.8381L1.56144 14.6265Z" stroke="white" stroke-opacity="0.66" stroke-width="1.4" stroke-linecap="round" stroke-linejoin="round"/>
</svg>
