<svg width="24" height="24" viewBox="0 0 24 24" fill="none" xmlns="http://www.w3.org/2000/svg">
<path d="M22.9707 8.08C22.7082 8.08 22.4564 7.97581 22.2707 7.79031C22.0849 7.60482 21.9804 7.35318 21.98 7.09067V4.652C21.9802 4.30545 21.912 3.96227 21.7794 3.64211C21.6467 3.32196 21.4522 3.03112 21.2069 2.78626C20.9617 2.5414 20.6706 2.34732 20.3502 2.21515C20.0299 2.08297 19.6866 2.0153 19.34 2.016H15.6707C15.4084 2.016 15.1568 1.91199 14.9711 1.72678C14.7854 1.54157 14.6807 1.29028 14.68 1.028C14.6799 0.898092 14.7053 0.769429 14.755 0.649392C14.8047 0.529356 14.8776 0.420311 14.9695 0.328514C15.0614 0.236717 15.1706 0.163976 15.2907 0.114465C15.4108 0.0649546 15.5395 0.0396487 15.6694 0.04H19.34C20.5734 0.0463971 21.7547 0.538347 22.628 1.40933C23.5005 2.28027 23.9936 3.46058 24 4.69333V7.132C23.9862 7.39313 23.8708 7.6385 23.6784 7.81565C23.4861 7.9928 23.2321 8.08768 22.9707 8.08ZM19.34 23.9333H15.6707C15.4756 23.9326 15.2851 23.8743 15.123 23.7657C14.9609 23.6572 14.8345 23.5032 14.7596 23.323C14.6847 23.1429 14.6646 22.9447 14.702 22.7532C14.7393 22.5617 14.8323 22.3855 14.9694 22.2467C15.1552 22.0613 15.4069 21.9573 15.6694 21.9573H19.34C20.0393 21.9566 20.7098 21.6788 21.2046 21.1847C21.6994 20.6907 21.9783 20.0206 21.98 19.3213V16.9093C21.9792 16.7131 22.0369 16.521 22.1456 16.3577C22.2544 16.1943 22.4093 16.0671 22.5907 15.9921C22.7721 15.9172 22.9716 15.8979 23.164 15.9368C23.3563 15.9758 23.5327 16.0711 23.6707 16.2107C23.7625 16.3024 23.8353 16.4113 23.885 16.5312C23.9346 16.6511 23.9601 16.7796 23.96 16.9093V19.348C23.9525 20.58 23.459 21.7593 22.5867 22.6293C21.7142 23.5002 20.534 23.9925 19.3014 24L19.34 23.9333ZM8.31736 23.9333H4.64669C3.41355 23.9302 2.23183 23.4388 1.36003 22.5667C0.489178 21.6951 9.36707e-06 20.5134 2.77275e-05 19.2813V16.9093C-0.00144541 16.7128 0.0558119 16.5203 0.164459 16.3565C0.273107 16.1927 0.428193 16.0651 0.609836 15.9901C0.79148 15.915 0.991403 15.8959 1.18398 15.9352C1.37655 15.9745 1.55299 16.0704 1.69069 16.2107C1.7825 16.3024 1.8553 16.4113 1.90495 16.5312C1.9546 16.6511 1.98011 16.7796 1.98003 16.9093V19.348C1.97968 19.6946 2.04775 20.0379 2.18035 20.3581C2.31294 20.6783 2.50745 20.9692 2.75272 21.2141C2.99799 21.459 3.2892 21.6531 3.60963 21.7852C3.93007 21.9173 4.27343 21.9849 4.62003 21.984H8.2907C8.55274 21.9844 8.80398 22.0885 8.9894 22.2737C9.17482 22.4589 9.27932 22.71 9.28003 22.972C9.2802 23.1019 9.25472 23.2306 9.20505 23.3506C9.15538 23.4706 9.08249 23.5797 8.99057 23.6715C8.89865 23.7633 8.78951 23.836 8.6694 23.8855C8.5493 23.935 8.4206 23.9604 8.2907 23.96L8.31736 23.9333ZM0.990694 8.08C0.727953 8.08 0.475973 7.97563 0.290187 7.78984C0.104401 7.60405 2.77275e-05 7.35208 2.77275e-05 7.08933V4.652C2.77275e-05 3.42133 0.489361 2.23867 1.36003 1.36667C2.23183 0.494531 3.41355 0.00314822 4.64669 0H8.31736C8.57941 0.000351742 8.83064 0.104515 9.01607 0.289687C9.20149 0.474858 9.30599 0.725952 9.30669 0.988C9.30705 1.11802 9.2817 1.24683 9.2321 1.36702C9.18251 1.48721 9.10965 1.59641 9.01771 1.68835C8.92577 1.78029 8.81657 1.85315 8.69638 1.90274C8.57619 1.95234 8.44738 1.97768 8.31736 1.97733H4.64669C3.94743 1.97804 3.27695 2.25586 2.78212 2.74994C2.28729 3.24401 2.00846 3.91407 2.00669 4.61333V7.05067C2.01049 7.18568 1.9869 7.32007 1.93734 7.44572C1.88778 7.57137 1.81328 7.68568 1.71834 7.78174C1.62339 7.87781 1.50996 7.95365 1.38491 8.00468C1.25985 8.05571 1.12575 8.08088 0.990694 8.07867M18.244 11.9667C18.2432 13.4154 17.7394 14.8188 16.8187 15.9373C15.8974 17.0578 14.6162 17.8244 13.1933 18.1064C11.7704 18.3884 10.2937 18.1684 9.01469 17.484C8.05878 16.9757 7.25126 16.2279 6.67124 15.3138C6.09121 14.3996 5.75856 13.3505 5.70587 12.2692C5.65318 11.1878 5.88226 10.1113 6.37066 9.14511C6.85907 8.1789 7.59006 7.35611 8.49203 6.75733C9.26333 6.24307 10.1389 5.90597 11.056 5.77027C11.973 5.63456 12.9087 5.7036 13.7959 5.97243C14.6831 6.24126 15.4998 6.70322 16.1872 7.32512C16.8747 7.94702 17.4159 8.71344 17.772 9.56933C18.0867 10.3293 18.248 11.144 18.244 11.9667Z" fill="white" fill-opacity="0.66"/>
</svg>
