<svg width="22" height="22" viewBox="0 0 22 22" fill="none" xmlns="http://www.w3.org/2000/svg">
<path fill-rule="evenodd" clip-rule="evenodd" d="M10.7202 0.699219C10.7312 0.699219 10.7402 0.708173 10.7402 0.719219V10.6709L18.2061 3.20508C18.2139 3.19727 18.2265 3.19727 18.2343 3.20508C18.2421 3.21289 18.2421 3.22555 18.2343 3.23336L10.7685 10.6992H20.7202C20.7312 10.6992 20.7402 10.7082 20.7402 10.7192C20.7402 10.7303 20.7312 10.7392 20.7202 10.7392H10.7685L18.2343 18.2051C18.2421 18.2129 18.2421 18.2256 18.2343 18.2334C18.2265 18.2412 18.2139 18.2412 18.2061 18.2334L10.7402 10.7675V20.7192C10.7402 20.7303 10.7312 20.7392 10.7202 20.7392C10.7092 20.7392 10.7002 20.7303 10.7002 20.7192V10.7675L3.23434 18.2334C3.22653 18.2412 3.21386 18.2412 3.20605 18.2334C3.19824 18.2256 3.19824 18.2129 3.20605 18.2051L10.6719 10.7392H0.720195C0.70915 10.7392 0.700195 10.7303 0.700195 10.7192C0.700195 10.7082 0.70915 10.6992 0.720195 10.6992H10.6719L3.20605 3.23336C3.19824 3.22555 3.19824 3.21289 3.20605 3.20508C3.21386 3.19727 3.22653 3.19727 3.23434 3.20508L10.7002 10.6709V0.719219C10.7002 0.708173 10.7092 0.699219 10.7202 0.699219Z" stroke="white" stroke-opacity="0.66" stroke-width="1.4" stroke-linecap="round" stroke-linejoin="round"/>
</svg>
