<svg width="23" height="11" viewBox="0 0 23 11" fill="none" xmlns="http://www.w3.org/2000/svg">
<path d="M7.53648 3.60741C7.38936 3.60741 7.26221 3.50908 7.20859 3.37209C7.14594 3.21203 7.06959 3.06566 6.97956 2.93298C6.84712 2.73432 6.68504 2.56702 6.49335 2.43108C6.30513 2.29167 6.08904 2.18536 5.84506 2.11217C5.60456 2.03897 5.33793 2.00238 5.04515 2.00238C4.49794 2.00238 4.01695 2.13831 3.60219 2.41017C3.19091 2.68203 2.87025 3.07763 2.64021 3.59696C2.41017 4.1128 2.29515 4.74366 2.29515 5.48954C2.29515 6.23542 2.40843 6.86977 2.63498 7.39259C2.86153 7.9154 3.18219 8.31448 3.59696 8.58983C4.01172 8.86169 4.50143 8.99762 5.06606 8.99762C5.57842 8.99762 6.01584 8.907 6.37833 8.72576C6.7443 8.54103 7.02313 8.28137 7.21483 7.94677C7.40479 7.62112 7.50231 7.23769 7.50739 6.79648C7.50762 6.77726 7.52468 6.7625 7.54369 6.76531C7.58228 6.77101 7.5781 6.82795 7.53909 6.82795H5.39614C5.29181 6.82795 5.20722 6.74337 5.20722 6.63903V5.45357C5.20722 5.27132 5.35497 5.12357 5.53722 5.12357H9.35774C9.53999 5.12357 9.68774 5.27132 9.68774 5.45357V6.47243C9.68774 7.4135 9.48907 8.22212 9.09173 8.89829C8.69439 9.57098 8.14718 10.0903 7.45009 10.4563C6.75301 10.8188 5.95485 11 5.05561 11C4.05181 11 3.16999 10.7787 2.41017 10.336C1.65035 9.88989 1.05783 9.25729 0.632605 8.43821C0.210868 7.61565 0 6.63973 0 5.51046C0 4.64259 0.125475 3.86882 0.376426 3.18916C0.630862 2.50602 0.986375 1.92744 1.44297 1.45342C1.89956 0.979404 2.43108 0.618663 3.03755 0.371198C3.64401 0.123733 4.30101 0 5.00855 0C5.61502 0 6.17966 0.0888784 6.70247 0.266635C7.22529 0.440906 7.68885 0.688372 8.09316 1.00903C8.50095 1.32969 8.83381 1.71134 9.09173 2.15399C9.28796 2.48811 9.43072 2.84845 9.52003 3.23502C9.56509 3.43009 9.40989 3.60741 9.20968 3.60741H7.53648Z" fill="white" fill-opacity="0.66"/>
<path d="M13.322 0.146388C13.5042 0.146388 13.652 0.294134 13.652 0.476388V10.5236C13.652 10.7059 13.5042 10.8536 13.322 10.8536H11.7182C11.5359 10.8536 11.3882 10.7059 11.3882 10.5236V0.476388C11.3882 0.294134 11.5359 0.146388 11.7182 0.146388H13.322Z" fill="white" fill-opacity="0.66"/>
<path d="M15.8445 10.8536C15.6622 10.8536 15.5145 10.7059 15.5145 10.5236V0.476388C15.5145 0.294134 15.6622 0.146388 15.8445 0.146388H22.2738C22.4561 0.146388 22.6038 0.294134 22.6038 0.476388V1.68283C22.6038 1.86509 22.4561 2.01283 22.2738 2.01283H18.1083C17.926 2.01283 17.7783 2.16058 17.7783 2.34283V4.23416C17.7783 4.41642 17.926 4.56416 18.1083 4.56416H21.8033C21.9856 4.56416 22.1333 4.71191 22.1333 4.89416V6.10061C22.1333 6.28286 21.9856 6.43061 21.8033 6.43061H18.1083C17.926 6.43061 17.7783 6.57835 17.7783 6.76061V10.5236C17.7783 10.7059 17.6305 10.8536 17.4483 10.8536H15.8445Z" fill="white" fill-opacity="0.66"/>
</svg>
