<svg width="16" height="16" viewBox="0 0 16 16" fill="none" xmlns="http://www.w3.org/2000/svg">
<path d="M8.5259 0.424619C8.22583 0.191234 8.0758 0.0745407 7.91013 0.0296843C7.76395 -0.00989477 7.60988 -0.00989477 7.4637 0.0296843C7.29803 0.0745407 7.14799 0.191233 6.84793 0.424619L1.05515 4.93011C0.667925 5.23129 0.474314 5.38187 0.334831 5.57046C0.211275 5.73751 0.119234 5.9257 0.0632269 6.12579C0 6.35167 0 6.59695 0 7.08751V13.2669C0 14.2236 0 14.7019 0.186183 15.0673C0.349954 15.3887 0.611276 15.65 0.932695 15.8138C1.2981 16 1.77644 16 2.73312 16H4.44133C4.6805 16 4.80008 16 4.89144 15.9535C4.97179 15.9125 5.03712 15.8472 5.07806 15.7668C5.12461 15.6755 5.12461 15.5559 5.12461 15.3167V9.67965C5.12461 9.20131 5.12461 8.96214 5.2177 8.77943C5.29959 8.61872 5.43025 8.48806 5.59096 8.40618C5.77366 8.31309 6.01283 8.31309 6.49117 8.31309H8.88265C9.361 8.31309 9.60017 8.31309 9.78287 8.40618C9.94358 8.48806 10.0742 8.61872 10.1561 8.77943C10.2492 8.96214 10.2492 9.20131 10.2492 9.67965V15.3167C10.2492 15.5559 10.2492 15.6755 10.2958 15.7668C10.3367 15.8472 10.402 15.9125 10.4824 15.9535C10.5737 16 10.6933 16 10.9325 16H12.6407C13.5974 16 14.0757 16 14.4411 15.8138C14.7626 15.65 15.0239 15.3887 15.1876 15.0673C15.3738 14.7019 15.3738 14.2236 15.3738 13.2669V7.08751C15.3738 6.59695 15.3738 6.35167 15.3106 6.12579C15.2546 5.9257 15.1625 5.73751 15.039 5.57046C14.8995 5.38187 14.7059 5.23129 14.3187 4.93011L8.5259 0.424619Z" fill="white" fill-opacity="0.66"/>
</svg>
