<svg width="20" height="17" viewBox="0 0 20 17" fill="none" xmlns="http://www.w3.org/2000/svg">
<path d="M16.7393 9.6748C18.5401 9.6749 19.9999 11.1347 20 12.9355C20 14.7364 18.5401 16.1962 16.7393 16.1963H3.26074C1.45987 16.1962 0 14.7364 0 12.9355C8.87722e-05 11.1347 1.45992 9.6749 3.26074 9.6748H16.7393ZM3.26074 12.0654C2.7805 12.0654 2.3916 12.4553 2.3916 12.9355C2.39175 13.4157 2.78059 13.8047 3.26074 13.8047C3.7409 13.8047 4.12973 13.4157 4.12988 12.9355C4.12988 12.4553 3.74099 12.0654 3.26074 12.0654ZM14.9775 0C15.6256 -5.1035e-05 16.2555 0.205637 16.7695 0.584961C17.2836 0.964415 17.6533 1.49679 17.8203 2.09863L19.6641 8.74121C19.7366 9.00246 19.4017 9.22227 19.1553 9.0918C18.3992 8.69157 17.5457 8.47916 16.6729 8.48047H3.43555C2.56295 8.47932 1.70902 8.69161 0.953125 9.0918C0.706712 9.22197 0.37286 9.00236 0.445312 8.74121L2.28809 2.09863C2.45515 1.49663 2.82462 0.964431 3.33887 0.584961C3.85311 0.205497 4.48346 -0.000269103 5.13184 0H14.9775Z" fill="white" fill-opacity="0.66"/>
</svg>
