<svg width="22" height="22" viewBox="0 0 22 22" fill="none" xmlns="http://www.w3.org/2000/svg">
<path fill-rule="evenodd" clip-rule="evenodd" d="M10.7202 0.699219C10.7312 0.699219 10.7402 0.708173 10.7402 0.719219V2.69924C15.1537 2.71002 18.7294 6.28576 18.7402 10.6992H20.7202C20.7312 10.6992 20.7402 10.7082 20.7402 10.7192C20.7402 10.7303 20.7312 10.7392 20.7202 10.7392H18.7402C18.7294 15.1527 15.1537 18.7284 10.7402 18.7392V20.7192C10.7402 20.7303 10.7312 20.7392 10.7202 20.7392C10.7092 20.7392 10.7002 20.7303 10.7002 20.7192V18.7392C6.28673 18.7284 2.71099 15.1527 2.70022 10.7392H0.720195C0.70915 10.7392 0.700195 10.7303 0.700195 10.7192C0.700195 10.7082 0.70915 10.6992 0.720195 10.6992H2.70022C2.71099 6.28576 6.28673 2.71002 10.7002 2.69924V0.719219C10.7002 0.708173 10.7092 0.699219 10.7202 0.699219ZM10.7002 2.73924C6.30883 2.75002 2.75099 6.30785 2.74022 10.6992H4.7202C4.73124 10.6992 4.7402 10.7082 4.7402 10.7192C4.7402 10.7303 4.73124 10.7392 4.7202 10.7392H2.74022C2.75099 15.1306 6.30882 18.6884 10.7002 18.6992V16.7192C10.7002 16.7082 10.7092 16.6992 10.7202 16.6992C10.7312 16.6992 10.7402 16.7082 10.7402 16.7192V18.6992C15.1316 18.6884 18.6894 15.1306 18.7002 10.7392H16.7202C16.7092 10.7392 16.7002 10.7303 16.7002 10.7192C16.7002 10.7082 16.7092 10.6992 16.7202 10.6992H18.7002C18.6894 6.30785 15.1316 2.75002 10.7402 2.73924V4.71922C10.7402 4.73026 10.7312 4.73922 10.7202 4.73922C10.7092 4.73922 10.7002 4.73026 10.7002 4.71922V2.73924ZM10.7202 7.73922C9.07439 7.73922 7.7402 9.07341 7.7402 10.7192C7.7402 12.365 9.07439 13.6992 10.7202 13.6992C12.366 13.6992 13.7002 12.365 13.7002 10.7192C13.7002 9.07341 12.366 7.73922 10.7202 7.73922ZM7.7002 10.7192C7.7002 9.05132 9.0523 7.69922 10.7202 7.69922C12.3881 7.69922 13.7402 9.05132 13.7402 10.7192C13.7402 12.3871 12.3881 13.7392 10.7202 13.7392C9.0523 13.7392 7.7002 12.3871 7.7002 10.7192Z" stroke="white" stroke-opacity="0.66" stroke-width="1.4" stroke-linecap="round" stroke-linejoin="round"/>
</svg>
