<svg width="18" height="18" viewBox="0 0 18 18" fill="none" xmlns="http://www.w3.org/2000/svg">
<path d="M8.7002 5.21875V5.71875M0.740195 8.71922C0.740195 4.31199 4.31296 0.739219 8.7202 0.739219C13.1274 0.739219 16.7002 4.31199 16.7002 8.71922C16.7002 13.1265 13.1274 16.6992 8.7202 16.6992C4.31296 16.6992 0.740195 13.1265 0.740195 8.71922ZM8.7202 0.699219C4.29087 0.699219 0.700195 4.2899 0.700195 8.71922C0.700195 13.1485 4.29087 16.7392 8.7202 16.7392C13.1495 16.7392 16.7402 13.1485 16.7402 8.71922C16.7402 4.2899 13.1495 0.699219 8.7202 0.699219ZM8.7402 7.91922C8.7402 7.90817 8.73124 7.89922 8.7202 7.89922C8.70915 7.89922 8.7002 7.90817 8.7002 7.91922V11.9192C8.7002 11.9303 8.70915 11.9392 8.7202 11.9392C8.73124 11.9392 8.7402 11.9303 8.7402 11.9192V7.91922Z" stroke="white" stroke-opacity="0.66" stroke-width="1.4" stroke-linecap="round" stroke-linejoin="round"/>
</svg>
