<svg width="16" height="18" viewBox="0 0 16 18" fill="none" xmlns="http://www.w3.org/2000/svg">
<path fill-rule="evenodd" clip-rule="evenodd" d="M10.7197 0.699224H5.7202C5.70915 0.699224 5.7002 0.708178 5.7002 0.719224C5.7002 0.73027 5.70915 0.739224 5.7202 0.739224H10.6913L4.70634 16.6992H0.720195C0.70915 16.6992 0.700195 16.7082 0.700195 16.7192C0.700195 16.7303 0.70915 16.7392 0.720195 16.7392H4.71974C4.72004 16.7392 4.72034 16.7392 4.72065 16.7392H9.7202C9.73124 16.7392 9.7402 16.7303 9.7402 16.7192C9.7402 16.7082 9.73124 16.6992 9.7202 16.6992H4.74906L10.7341 0.739224H14.7202C14.7312 0.739224 14.7402 0.73027 14.7402 0.719224C14.7402 0.708178 14.7312 0.699224 14.7202 0.699224H10.7207C10.7204 0.699217 10.72 0.699217 10.7197 0.699224Z" stroke="white" stroke-opacity="0.66" stroke-width="1.4" stroke-linecap="round" stroke-linejoin="round"/>
</svg>
