<svg width="23" height="22" viewBox="0 0 23 22" fill="none" xmlns="http://www.w3.org/2000/svg">
<path fill-rule="evenodd" clip-rule="evenodd" d="M18.5115 0.699219C20.2724 0.699466 21.7002 2.05901 21.7002 3.73606V8.81328C21.6999 10.4238 21.0276 11.9687 19.8318 13.1076L12.7944 19.81C11.5493 20.9958 9.53073 20.9955 8.28545 19.81L1.63413 13.4753C0.388884 12.2894 0.388884 10.367 1.63413 9.18103L8.67158 2.47862C9.86744 1.33969 11.4893 0.69934 13.1805 0.699219H18.5115ZM16.9172 3.73606C16.0367 3.73606 15.3229 4.41588 15.3229 5.25448C15.3229 6.09308 16.0367 6.7729 16.9172 6.7729C17.7975 6.77266 18.5115 6.09293 18.5115 5.25448C18.5115 4.41603 17.7975 3.73631 16.9172 3.73606Z" stroke="white" stroke-opacity="0.66" stroke-width="1.4"/>
</svg>
