<svg width="17" height="22" viewBox="0 0 17 22" fill="none" xmlns="http://www.w3.org/2000/svg">
<path fill-rule="evenodd" clip-rule="evenodd" d="M1.00017 2.98747C0.278918 2.05409 0.944216 0.699219 2.12379 0.699219H14.8727C15.6569 0.699219 16.2927 1.33497 16.2927 2.11922V4.46922C16.2927 4.48026 16.2837 4.48922 16.2727 4.48922C16.2617 4.48922 16.2527 4.48026 16.2527 4.46922V2.11922C16.2527 1.35707 15.6349 0.739219 14.8727 0.739219H2.12379C0.977443 0.739219 0.330887 2.05593 1.03182 2.96302L6.35432 9.85096C6.74949 10.3624 6.74949 11.0761 6.35432 11.5875L1.03182 18.4754C0.330888 19.3825 0.977443 20.6992 2.12379 20.6992H14.8727C15.6349 20.6992 16.2527 20.0814 16.2527 19.3192V16.9692C16.2527 16.9582 16.2617 16.9492 16.2727 16.9492C16.2837 16.9492 16.2927 16.9582 16.2927 16.9692V19.3192C16.2927 20.1035 15.6569 20.7392 14.8727 20.7392H2.12379C0.944215 20.7392 0.278919 19.3843 1.00017 18.451L6.32267 11.563C6.70671 11.066 6.70671 10.3724 6.32267 9.87542L1.00017 2.98747Z" stroke="white" stroke-opacity="0.66" stroke-width="1.4" stroke-linecap="round" stroke-linejoin="round"/>
</svg>
