<svg width="22" height="22" viewBox="0 0 22 22" fill="none" xmlns="http://www.w3.org/2000/svg">
<path fill-rule="evenodd" clip-rule="evenodd" d="M15.1944 0.701222C16.6328 0.662255 18.0838 1.1917 19.1817 2.28954C21.3021 4.40998 21.3021 7.84788 19.1817 9.96831L17.6198 11.4992C17.6119 11.5069 17.5992 11.5069 17.5914 11.4991C17.5837 11.4913 17.5837 11.4787 17.5915 11.4709L19.1216 9.94079C21.2264 7.83598 21.2264 4.42341 19.1216 2.3186C18.0399 1.2369 16.6128 0.711107 15.1953 0.741211C13.8654 0.777267 12.5462 1.30281 11.5312 2.31783L9.96929 3.84869C9.96143 3.8564 9.94868 3.85644 9.94093 3.84862C9.93319 3.8408 9.93322 3.82819 9.941 3.82041L11.4711 2.29031C12.5018 1.25963 13.8437 0.729934 15.1944 0.701222ZM14.5211 6.91903C14.5289 6.92684 14.5289 6.9395 14.5211 6.94731L6.94754 14.5209C6.93973 14.5287 6.92707 14.5287 6.91926 14.5209C6.91145 14.5131 6.91145 14.5004 6.91926 14.4926L14.4928 6.91903C14.5007 6.91122 14.5133 6.91122 14.5211 6.91903ZM3.84863 9.94052C3.85648 9.94808 3.85684 9.96052 3.84944 9.96852L2.40381 11.5304C0.298899 13.6354 0.278687 16.9913 2.3834 19.096C4.48829 21.2009 7.80835 21.2164 9.91308 19.1116L11.4711 17.5913C11.479 17.5836 11.4917 17.5835 11.4995 17.5914C11.5072 17.5992 11.5072 17.6118 11.4994 17.6196L9.96929 19.1497C7.84886 21.2701 4.41095 21.2701 2.29052 19.1497C0.170087 17.0292 0.170087 13.5913 2.29052 11.4709L3.82062 9.94079C3.82832 9.93309 3.84077 9.93297 3.84863 9.94052ZM4.13474 20.3186C3.49057 20.0521 2.88464 19.6538 2.35512 19.1243C0.23468 17.0038 0.25465 13.6233 2.37471 11.503L3.11715 10.7008L2.31881 11.4992C0.213993 13.604 0.213992 17.0166 2.3188 19.1214C2.85392 19.6565 3.47356 20.0556 4.13474 20.3186Z" stroke="white" stroke-opacity="0.66" stroke-width="1.4" stroke-linecap="round" stroke-linejoin="round"/>
</svg>
