<svg width="20" height="18" viewBox="0 0 20 18" fill="none" xmlns="http://www.w3.org/2000/svg">
<path d="M10 3C10 2.44772 10.4477 2 11 2H19C19.5523 2 20 2.44772 20 3C20 3.55228 19.5523 4 19 4H11C10.4477 4 10 3.55228 10 3Z" fill="white" fill-opacity="0.66"/>
<path d="M10 15C10 14.4477 10.4477 14 11 14H19C19.5523 14 20 14.4477 20 15C20 15.5523 19.5523 16 19 16H11C10.4477 16 10 15.5523 10 15Z" fill="white" fill-opacity="0.66"/>
<path d="M6 3C6 4.65685 4.65685 6 3 6C1.34315 6 0 4.65685 0 3C0 1.34315 1.34315 0 3 0C4.65685 0 6 1.34315 6 3Z" fill="white" fill-opacity="0.66"/>
<path d="M6 15C6 16.6569 4.65685 18 3 18C1.34315 18 0 16.6569 0 15C0 13.3431 1.34315 12 3 12C4.65685 12 6 13.3431 6 15Z" fill="white" fill-opacity="0.66"/>
</svg>
