<svg width="20" height="24" viewBox="0 0 20 24" fill="none" xmlns="http://www.w3.org/2000/svg">
<path d="M19.8836 10.4197C19.8909 10.2607 19.8964 10.1035 19.8964 9.94818C19.8945 4.45411 15.4404 0 9.94818 0C4.45594 0 0 4.45411 0 9.94818C0 10.1035 0.0054831 10.2607 0.0127939 10.4197C0.0127939 10.4435 0.0146216 10.4672 0.0164493 10.491C0.371023 17.4308 7.35467 24 9.94818 24C12.5417 24 19.5253 17.4308 19.8799 10.491C19.8799 10.4672 19.8817 10.4435 19.8836 10.4216V10.4197ZM6.25439 9.94818C6.25439 7.90846 7.90846 6.25439 9.94818 6.25439C11.9879 6.25439 13.642 7.90846 13.642 9.94818C13.642 11.9879 11.9879 13.642 9.94818 13.642C7.90846 13.642 6.25439 11.9879 6.25439 9.94818Z" fill="white" fill-opacity="0.66"/>
</svg>
