<svg width="26" height="22" viewBox="0 0 26 22" fill="none" xmlns="http://www.w3.org/2000/svg">
<path d="M24.7002 5.75293L14.7451 11.5605C13.5718 12.2449 12.1385 12.2872 10.9326 11.6885L10.6943 11.5605L0.739258 5.75293V16.7188C0.739258 18.9168 2.52163 20.6992 4.71973 20.6992H20.7197C22.9178 20.6992 24.7002 18.9168 24.7002 16.7188V5.75293ZM24.7002 4.71875C24.7002 2.52066 22.9178 0.738281 20.7197 0.738281H4.71973C2.52163 0.738281 0.739258 2.52066 0.739258 4.71875V5.70605L10.7139 11.5254L10.9502 11.6533C12.1441 12.2461 13.5639 12.203 14.7256 11.5254L24.7002 5.70605V4.71875ZM24.7393 16.7188C24.7393 18.9389 22.9399 20.7383 20.7197 20.7383H4.71973C2.49954 20.7383 0.700195 18.9389 0.700195 16.7188V4.71875C0.700195 2.49857 2.49954 0.699219 4.71973 0.699219H20.7197C22.9399 0.699219 24.7393 2.49857 24.7393 4.71875V16.7188Z" stroke="white" stroke-opacity="0.66" stroke-width="1.4" stroke-linecap="round" stroke-linejoin="round"/>
</svg>
