<svg width="15" height="24" viewBox="0 0 15 24" fill="none" xmlns="http://www.w3.org/2000/svg">
<path d="M3 4.5C3 3.30653 3.47411 2.16193 4.31802 1.31802C5.16193 0.474106 6.30653 0 7.5 0C8.69347 0 9.83807 0.474106 10.682 1.31802C11.5259 2.16193 12 3.30653 12 4.5V12C12 13.1935 11.5259 14.3381 10.682 15.182C9.83807 16.0259 8.69347 16.5 7.5 16.5C6.30653 16.5 5.16193 16.0259 4.31802 15.182C3.47411 14.3381 3 13.1935 3 12V4.5Z" fill="white" fill-opacity="0.66"/>
<path d="M0.75 9.75C0.948912 9.75 1.13968 9.82902 1.28033 9.96967C1.42098 10.1103 1.5 10.3011 1.5 10.5V12C1.5 13.5913 2.13214 15.1174 3.25736 16.2426C4.38258 17.3679 5.9087 18 7.5 18C9.0913 18 10.6174 17.3679 11.7426 16.2426C12.8679 15.1174 13.5 13.5913 13.5 12V10.5C13.5 10.3011 13.579 10.1103 13.7197 9.96967C13.8603 9.82902 14.0511 9.75 14.25 9.75C14.4489 9.75 14.6397 9.82902 14.7803 9.96967C14.921 10.1103 15 10.3011 15 10.5V12C15 13.8593 14.3094 15.6523 13.0622 17.0312C11.8818 18.3362 10.2825 19.1822 8.54637 19.4268C8.37855 19.4504 8.25 19.5915 8.25 19.761V22.17C8.25 22.3523 8.39775 22.5 8.58 22.5H12.75C12.9489 22.5 13.1397 22.579 13.2803 22.7197C13.421 22.8603 13.5 23.0511 13.5 23.25C13.5 23.4489 13.421 23.6397 13.2803 23.7803C13.1397 23.921 12.9489 24 12.75 24H2.25C2.05109 24 1.86032 23.921 1.71967 23.7803C1.57902 23.6397 1.5 23.4489 1.5 23.25C1.5 23.0511 1.57902 22.8603 1.71967 22.7197C1.86032 22.579 2.05109 22.5 2.25 22.5H6.42C6.60225 22.5 6.75 22.3523 6.75 22.17V19.761C6.75 19.5915 6.62145 19.4504 6.45363 19.4268C4.71746 19.1822 3.11819 18.3362 1.93782 17.0312C0.690576 15.6523 -2.33575e-05 13.8593 5.92991e-10 12V10.5C5.92991e-10 10.3011 0.0790178 10.1103 0.21967 9.96967C0.360322 9.82902 0.551088 9.75 0.75 9.75Z" fill="white" fill-opacity="0.66"/>
</svg>
