<svg width="16" height="21" viewBox="0 0 16 21" fill="none" xmlns="http://www.w3.org/2000/svg">
<path fill-rule="evenodd" clip-rule="evenodd" d="M8 0C12.4183 0 16 2.04571 16 4.57143C16 7.09714 12.4183 9.14286 8 9.14286C3.58171 9.14286 0 7.09714 0 4.57143C0 2.04571 3.58171 0 8 0ZM14.5074 9.29143C14.8645 9.08829 15.2122 8.85666 15.5394 8.59827C15.7205 8.45528 16 8.57954 16 8.81028V10.2857C16 12.8114 12.4183 14.8571 8 14.8571C3.58171 14.8571 0 12.8114 0 10.2857V8.80698C0 8.57675 0.277868 8.45293 0.458232 8.59602C0.784123 8.85457 1.12993 9.0875 1.49257 9.29257C3.24343 10.2926 5.54743 10.8571 8 10.8571C10.4526 10.8571 12.7566 10.2926 14.5074 9.29143ZM0.457959 14.3104C0.277563 14.1676 0 14.2914 0 14.5215V16C0 18.5257 3.58171 20.5714 8 20.5714C12.4183 20.5714 16 18.5257 16 16V14.5213C16 14.291 15.7221 14.1672 15.5418 14.3103C15.2159 14.5689 14.8701 14.8018 14.5074 15.0069C12.7566 16.0069 10.4526 16.5714 8 16.5714C5.54743 16.5714 3.24343 16.0069 1.49257 15.0057C1.12987 14.8011 0.783981 14.5685 0.457959 14.3104Z" fill="white" fill-opacity="0.66"/>
</svg>
