<svg width="21" height="24" viewBox="0 0 21 24" fill="none" xmlns="http://www.w3.org/2000/svg">
<path d="M20.401 0.899424C20.4009 0.75922 20.368 0.620978 20.3051 0.495717C20.2421 0.370457 20.1507 0.261643 20.0382 0.17795C19.9257 0.0942574 19.7952 0.0380001 19.6572 0.0136633C19.5191 -0.0106736 19.3772 -0.00241682 19.2429 0.037775L7.24224 3.63798C7.0568 3.69347 6.89418 3.80726 6.77853 3.96248C6.66287 4.1177 6.60034 4.30606 6.6002 4.49963V16.0463C6.6002 16.1756 6.45379 16.2529 6.34261 16.187C5.61883 15.7578 4.78044 15.5546 3.93594 15.6078C2.98923 15.6675 2.09059 16.0459 1.38634 16.6814C0.682086 17.3169 0.213689 18.1721 0.0574042 19.1078C-0.0988809 20.0434 0.0661496 21.0044 0.525629 21.8343C0.985108 22.6642 1.71198 23.3141 2.5879 23.6782C3.46382 24.0423 4.43721 24.0993 5.3496 23.8397C6.26199 23.5801 7.05965 23.0193 7.61272 22.2486C8.16578 21.478 8.44168 20.5428 8.3955 19.5953L8.4003 19.5005V10.0886C8.4003 10.0179 8.44665 9.95564 8.51433 9.93533L18.3949 6.97116C18.4976 6.94036 18.6009 7.01723 18.6009 7.12441V13.6474C18.6009 13.7767 18.4545 13.854 18.3433 13.788C17.6195 13.3588 16.7811 13.1557 15.9366 13.2089C14.9899 13.2686 14.0913 13.647 13.387 14.2825C12.6828 14.918 12.2144 15.7732 12.0581 16.7088C11.9018 17.6445 12.0668 18.6054 12.5263 19.4353C12.9858 20.2652 13.7127 20.9151 14.5886 21.2793C15.4645 21.6434 16.4379 21.7003 17.3503 21.4407C18.2627 21.1812 19.0603 20.6204 19.6134 19.8497C20.1665 19.079 20.4424 18.1438 20.3962 17.1964L20.401 17.1003V0.899424Z" fill="white" fill-opacity="0.66"/>
</svg>
