<svg width="22" height="22" viewBox="0 0 22 22" fill="none" xmlns="http://www.w3.org/2000/svg">
<path fill-rule="evenodd" clip-rule="evenodd" d="M2.49797 0.699219H6.7202C7.03053 0.699219 7.26551 0.699219 7.4516 0.714423C7.63812 0.729662 7.77825 0.760275 7.90038 0.822502C8.11321 0.930946 8.28625 1.10398 8.39469 1.31682C8.45692 1.43895 8.48753 1.57908 8.50277 1.76559C8.51797 1.95168 8.51797 2.1857 8.51797 2.49603V6.71922C8.51797 7.02955 8.51797 7.26453 8.50277 7.45062C8.48753 7.63714 8.45692 7.77727 8.39469 7.8994C8.28625 8.11223 8.11321 8.28527 7.90038 8.39371C7.77825 8.45594 7.63812 8.48655 7.4516 8.50179C7.26551 8.517 7.03149 8.517 6.72116 8.517H2.49797C2.18764 8.517 1.95266 8.517 1.76657 8.50179C1.58005 8.48655 1.43992 8.45594 1.31779 8.39371C1.10496 8.28527 0.931922 8.11223 0.823479 7.8994C0.761251 7.77727 0.730639 7.63714 0.7154 7.45062C0.700195 7.26453 0.700195 7.03051 0.700195 6.72017V2.497C0.700195 2.18666 0.700195 1.95169 0.7154 1.76559C0.730639 1.57908 0.761251 1.43895 0.823479 1.31682C0.931922 1.10398 1.10496 0.930946 1.31779 0.822502C1.43992 0.760275 1.58005 0.729662 1.76657 0.714423C1.95266 0.699219 2.18764 0.699219 2.49797 0.699219ZM1.76983 0.75429C1.58578 0.769327 1.4515 0.799267 1.33595 0.858143C1.13065 0.962751 0.963728 1.12967 0.859119 1.33498C0.800243 1.45053 0.770304 1.58481 0.755267 1.76885C0.740211 1.95313 0.740195 2.18553 0.740195 2.497V6.71922C0.740195 7.03069 0.740211 7.26309 0.755267 7.44737C0.770304 7.63141 0.800243 7.76569 0.859119 7.88124C0.963728 8.08655 1.13065 8.25346 1.33595 8.35807C1.4515 8.41695 1.58578 8.44689 1.76983 8.46193C1.9541 8.47698 2.1865 8.477 2.49797 8.477H6.7202C7.03167 8.477 7.26407 8.47698 7.44834 8.46193C7.63239 8.44689 7.76667 8.41695 7.88222 8.35807C8.08752 8.25346 8.25444 8.08655 8.35905 7.88124C8.41792 7.76569 8.44786 7.63141 8.4629 7.44737C8.47796 7.26309 8.47797 7.03069 8.47797 6.71922V2.497C8.47797 2.18553 8.47796 1.95313 8.4629 1.76885C8.44786 1.58481 8.41792 1.45053 8.35905 1.33498C8.25444 1.12967 8.08752 0.962751 7.88222 0.858143C7.76667 0.799267 7.63239 0.769327 7.44834 0.75429C7.26407 0.739234 7.03167 0.739219 6.7202 0.739219H2.49797C2.1865 0.739219 1.9541 0.739234 1.76983 0.75429ZM14.4502 1.3259C14.4502 1.31485 14.4592 1.3059 14.4702 1.3059H20.7202C20.7312 1.3059 20.7402 1.31485 20.7402 1.3259V6.96922C20.7402 6.98026 20.7312 6.98922 20.7202 6.98922C20.7092 6.98922 20.7002 6.98026 20.7002 6.96922V1.37357L13.0775 8.85849C13.0697 8.86623 13.057 8.86611 13.0493 8.85823C13.0415 8.85035 13.0416 8.83769 13.0495 8.82995L20.6713 1.3459H14.4702C14.4592 1.3459 14.4502 1.33694 14.4502 1.3259ZM2.49797 12.9214H6.7202C7.03054 12.9214 7.2655 12.9214 7.4516 12.9366C7.63812 12.9519 7.77825 12.9825 7.90038 13.0447C8.11321 13.1532 8.28625 13.3262 8.39469 13.539C8.45692 13.6612 8.48753 13.8013 8.50277 13.9878C8.51797 14.1739 8.51797 14.4079 8.51797 14.7183V18.9414C8.51797 19.2518 8.51797 19.4868 8.50277 19.6728C8.48753 19.8594 8.45692 19.9995 8.39469 20.1216C8.28625 20.3345 8.11321 20.5075 7.90038 20.6159C7.77825 20.6782 7.63812 20.7088 7.4516 20.724C7.2655 20.7392 7.03147 20.7392 6.72113 20.7392H2.49797C2.18763 20.7392 1.95267 20.7392 1.76657 20.724C1.58005 20.7088 1.43992 20.6782 1.31779 20.6159C1.10496 20.5075 0.931923 20.3345 0.823479 20.1216C0.761251 19.9995 0.730639 19.8594 0.7154 19.6728C0.700195 19.4868 0.700195 19.2527 0.700195 18.9424V14.7192C0.700195 14.4089 0.700195 14.1739 0.7154 13.9878C0.730639 13.8013 0.761251 13.6612 0.823479 13.539C0.931923 13.3262 1.10496 13.1532 1.31779 13.0447C1.43992 12.9825 1.58005 12.9519 1.76657 12.9366C1.95267 12.9214 2.18763 12.9214 2.49797 12.9214ZM1.76983 12.9765C1.58578 12.9916 1.4515 13.0215 1.33595 13.0804C1.13065 13.185 0.963728 13.3519 0.859119 13.5572C0.800243 13.6727 0.770304 13.807 0.755267 13.9911C0.740211 14.1754 0.740195 14.4078 0.740195 14.7192V18.9414C0.740195 19.2529 0.740211 19.4853 0.755267 19.6696C0.770304 19.8536 0.800243 19.9879 0.859119 20.1035C0.963728 20.3088 1.13065 20.4757 1.33595 20.5803C1.4515 20.6392 1.58578 20.6691 1.76983 20.6841C1.9541 20.6992 2.1865 20.6992 2.49797 20.6992H6.7202C7.03167 20.6992 7.26407 20.6992 7.44834 20.6841C7.63239 20.6691 7.76667 20.6392 7.88222 20.5803C8.08752 20.4757 8.25444 20.3088 8.35905 20.1035C8.41792 19.9879 8.44786 19.8536 8.4629 19.6696C8.47796 19.4853 8.47797 19.2529 8.47797 18.9414V14.7192C8.47797 14.4078 8.47796 14.1753 8.4629 13.9911C8.44786 13.807 8.41792 13.6727 8.35905 13.5572C8.25444 13.3519 8.08752 13.185 7.88222 13.0804C7.76667 13.0215 7.63239 12.9916 7.44834 12.9765C7.26407 12.9615 7.03167 12.9614 6.7202 12.9614H2.49797C2.1865 12.9614 1.9541 12.9615 1.76983 12.9765ZM14.7202 12.9214H18.9424C19.2528 12.9214 19.4877 12.9214 19.6738 12.9366C19.8603 12.9519 20.0005 12.9825 20.1226 13.0447C20.3354 13.1532 20.5085 13.3262 20.6169 13.539C20.6791 13.6612 20.7098 13.8013 20.725 13.9878C20.7402 14.1739 20.7402 14.4079 20.7402 14.7183V18.9414C20.7402 19.2518 20.7402 19.4867 20.725 19.6728C20.7098 19.8594 20.6791 19.9995 20.6169 20.1216C20.5085 20.3345 20.3354 20.5075 20.1226 20.6159C20.0005 20.6782 19.8603 20.7088 19.6738 20.724C19.4877 20.7392 19.2537 20.7392 18.9433 20.7392H14.7202C14.4099 20.7392 14.1749 20.7392 13.9888 20.724C13.8023 20.7088 13.6621 20.6782 13.54 20.6159C13.3272 20.5075 13.1541 20.3345 13.0457 20.1216C12.9835 19.9995 12.9529 19.8594 12.9376 19.6728C12.9224 19.4867 12.9224 19.2527 12.9224 18.9424V14.7192C12.9224 14.4089 12.9224 14.1739 12.9376 13.9878C12.9529 13.8013 12.9835 13.6612 13.0457 13.539C13.1541 13.3262 13.3272 13.1532 13.54 13.0447C13.6621 12.9825 13.8023 12.9519 13.9888 12.9366C14.1749 12.9214 14.4099 12.9214 14.7202 12.9214ZM13.992 12.9765C13.808 12.9916 13.6737 13.0215 13.5582 13.0804C13.3529 13.185 13.186 13.3519 13.0813 13.5572C13.0225 13.6727 12.9925 13.807 12.9775 13.9911C12.9624 14.1754 12.9624 14.4078 12.9624 14.7192V18.9414C12.9624 19.2529 12.9624 19.4853 12.9775 19.6696C12.9925 19.8536 13.0225 19.9879 13.0813 20.1035C13.186 20.3088 13.3529 20.4757 13.5582 20.5803C13.6737 20.6392 13.808 20.6691 13.992 20.6841C14.1763 20.6992 14.4087 20.6992 14.7202 20.6992H18.9424C19.2539 20.6992 19.4863 20.6992 19.6706 20.6841C19.8546 20.6691 19.9889 20.6392 20.1044 20.5803C20.3097 20.4757 20.4767 20.3088 20.5813 20.1035C20.6401 19.9879 20.6701 19.8536 20.6851 19.6696C20.7002 19.4853 20.7002 19.2529 20.7002 18.9414V14.7192C20.7002 14.4078 20.7002 14.1753 20.6851 13.9911C20.6701 13.807 20.6401 13.6727 20.5813 13.5572C20.4767 13.3519 20.3097 13.185 20.1044 13.0804C19.9889 13.0215 19.8546 12.9916 19.6706 12.9765C19.4863 12.9615 19.2539 12.9614 18.9424 12.9614H14.7202C14.4087 12.9614 14.1763 12.9615 13.992 12.9765Z" stroke="white" stroke-opacity="0.66" stroke-width="1.4" stroke-linecap="round" stroke-linejoin="round"/>
</svg>
