<svg width="15" height="16" viewBox="0 0 15 16" fill="none" xmlns="http://www.w3.org/2000/svg">
<path d="M2.67857 0C3.38897 0 4.07028 0.280952 4.57261 0.781049C5.07494 1.28115 5.35714 1.95942 5.35714 2.66667V13.3333C5.35714 14.0406 5.07494 14.7189 4.57261 15.219C4.07028 15.719 3.38897 16 2.67857 16C1.96817 16 1.28686 15.719 0.784535 15.219C0.282206 14.7189 1.49706e-08 14.0406 0 13.3333V2.66667C0 1.95942 0.282206 1.28115 0.784535 0.781049C1.28686 0.280952 1.96817 0 2.67857 0ZM12.1786 0C12.889 0 13.5703 0.280952 14.0726 0.781049C14.5749 1.28115 14.8571 1.95942 14.8571 2.66667V13.3333C14.8571 14.0406 14.5749 14.7189 14.0726 15.219C13.5703 15.719 12.889 16 12.1786 16C11.4682 16 10.7869 15.719 10.2845 15.219C9.7822 14.7189 9.5 14.0406 9.5 13.3333V2.66667C9.5 1.95942 9.7822 1.28115 10.2845 0.781049C10.7869 0.280952 11.4682 0 12.1786 0Z" fill="white" fill-opacity="0.66"/>
</svg>
