<svg width="22" height="22" viewBox="0 0 22 22" fill="none" xmlns="http://www.w3.org/2000/svg">
<path fill-rule="evenodd" clip-rule="evenodd" d="M12.3671 0.874511C12.6028 0.71986 12.8901 0.664531 13.1665 0.720553C13.3264 0.752968 13.4805 0.844666 13.6671 1.00023C13.8535 1.15563 14.0745 1.37659 14.3678 1.66985L19.7697 7.07176C20.0629 7.365 20.2838 7.58594 20.4392 7.77235C20.5948 7.95898 20.6865 8.11307 20.7189 8.27297C20.7749 8.54932 20.7196 8.83662 20.565 9.0724C20.4755 9.20883 20.3331 9.31784 20.1194 9.43334C19.9058 9.54872 19.6186 9.67181 19.2374 9.83517L16.6173 10.9581C16.5058 11.0059 16.4515 11.0292 16.4006 11.0582C16.3552 11.0842 16.3119 11.1135 16.2709 11.1461C16.225 11.1825 16.1832 11.2243 16.0974 11.3101L14.4585 12.949C14.3243 13.0832 14.259 13.1486 14.2071 13.223C14.1609 13.2893 14.1226 13.3608 14.0931 13.4361C14.0599 13.5205 14.0417 13.6112 14.0045 13.7973L13.2348 17.6461C13.135 18.1451 13.0598 18.5208 12.9766 18.8009C12.8934 19.081 12.8012 19.269 12.6651 19.3898C12.431 19.5975 12.1179 19.6923 11.8079 19.6493C11.6277 19.6243 11.4467 19.5191 11.2221 19.3321C10.9975 19.1453 10.7266 18.8743 10.3667 18.5145L6.65996 14.8077L0.734337 20.7334C0.726527 20.7412 0.713864 20.7412 0.706053 20.7334C0.698243 20.7255 0.698243 20.7129 0.706053 20.7051L6.63167 14.7795L2.92496 11.0728C2.56513 10.7129 2.29422 10.442 2.10732 10.2174C1.92041 9.99279 1.81514 9.81179 1.79014 9.63152C1.74718 9.32162 1.842 9.00844 2.04966 8.77441C2.17045 8.63828 2.35844 8.54608 2.63856 8.46286C2.91865 8.37966 3.29434 8.30452 3.79336 8.20471L7.64221 7.43494C7.82828 7.39773 7.91895 7.37952 8.00336 7.34641C8.07863 7.31689 8.15015 7.27861 8.21646 7.23236C8.29084 7.18049 8.35628 7.11515 8.49046 6.98097L10.1294 5.34203C10.2152 5.25625 10.257 5.21442 10.2934 5.16854C10.3259 5.1276 10.3553 5.08424 10.3812 5.03885C10.4103 4.98797 10.4336 4.93364 10.4814 4.82213L11.6043 2.20199C11.7677 1.82082 11.8908 1.53362 12.0061 1.32011C12.1216 1.10636 12.2306 0.963994 12.3671 0.874511ZM10.3942 18.4854C10.755 18.8462 11.0246 19.1158 11.2476 19.3014C11.4708 19.4871 11.6446 19.5863 11.8134 19.6097C12.1118 19.6511 12.4132 19.5598 12.6385 19.3599C12.766 19.2468 12.8556 19.0678 12.9383 18.7895C13.0209 18.5114 13.0957 18.1375 13.1958 17.6371L13.9658 13.787C14.0024 13.6039 14.0213 13.5096 14.0558 13.4215C14.0865 13.3433 14.1262 13.269 14.1743 13.2001C14.2284 13.1225 14.2964 13.0545 14.4285 12.9224L16.0702 11.2807C16.1547 11.1962 16.1982 11.1528 16.2461 11.1147C16.2886 11.0809 16.3336 11.0505 16.3808 11.0235C16.4339 10.9932 16.4904 10.969 16.6002 10.9219L19.2207 9.79884C19.6031 9.63495 19.8886 9.51256 20.1003 9.39815C20.312 9.28377 20.4475 9.17862 20.5315 9.05047C20.6804 8.8235 20.7336 8.54694 20.6797 8.28092C20.6493 8.1307 20.5626 7.98278 20.4085 7.79797C20.2544 7.61311 20.0348 7.39342 19.7406 7.09924L14.3402 1.6989C14.046 1.40471 13.8264 1.18505 13.6415 1.03096C13.4567 0.876897 13.3088 0.790206 13.1586 0.759756C12.8925 0.705828 12.616 0.759088 12.389 0.907958C12.2608 0.992017 12.1557 1.12744 12.0413 1.33913C11.9269 1.55085 11.8045 1.83639 11.6406 2.21879L10.5175 4.83931C10.4705 4.94909 10.4463 5.0056 10.416 5.05869C10.389 5.10585 10.3585 5.15089 10.3247 5.19342C10.2867 5.2413 10.2432 5.28478 10.1587 5.36926L8.51705 7.01095C8.38496 7.14304 8.31696 7.21104 8.23935 7.26517C8.17046 7.31322 8.09615 7.35298 8.01797 7.38365C7.92988 7.4182 7.83558 7.43706 7.6524 7.4737L3.80233 8.24371C3.30198 8.34378 2.92808 8.41858 2.64995 8.50121C2.37162 8.58389 2.19269 8.67349 2.07958 8.80096C1.87969 9.02623 1.78841 9.32771 1.82977 9.62603C1.85317 9.79484 1.95235 9.96864 2.13807 10.1918C2.32366 10.4148 2.59327 10.6845 2.95408 11.0453L10.3942 18.4854Z" stroke="white" stroke-opacity="0.66" stroke-width="1.4" stroke-linecap="round" stroke-linejoin="round"/>
</svg>
