<svg width="22" height="22" viewBox="0 0 22 22" fill="none" xmlns="http://www.w3.org/2000/svg">
<path fill-rule="evenodd" clip-rule="evenodd" d="M6.05353 0.699219H6.27575C6.2868 0.699219 6.29575 0.708173 6.29575 0.719219C6.29575 0.730264 6.2868 0.739219 6.27575 0.739219H6.05353C5.11978 0.739219 4.42067 0.739234 3.86583 0.784566C3.31123 0.829879 2.90254 0.920371 2.54931 1.10035C1.92586 1.41801 1.41899 1.92489 1.10133 2.54833C0.921347 2.90156 0.830856 3.31025 0.785543 3.86485C0.740211 4.41969 0.740195 5.1188 0.740195 6.05255V6.27477C0.740195 6.28582 0.731241 6.29477 0.720195 6.29477C0.70915 6.29477 0.700195 6.28582 0.700195 6.27477V6.05255C0.700195 5.11994 0.700195 4.41825 0.745676 3.8616C0.791191 3.30452 0.882355 2.88998 1.06569 2.53017C1.38718 1.8992 1.90018 1.38621 2.53115 1.06471C2.89096 0.881378 3.3055 0.790214 3.86257 0.744699C4.41923 0.699219 5.12092 0.699219 6.05353 0.699219ZM15.1446 0.719219C15.1446 0.708173 15.1536 0.699219 15.1646 0.699219H15.3869C16.3195 0.699219 17.0212 0.699219 17.5778 0.744699C18.1349 0.790214 18.5494 0.881379 18.9092 1.06471C19.5402 1.38621 20.0532 1.8992 20.3747 2.53017C20.558 2.88998 20.6492 3.30452 20.6947 3.8616C20.7402 4.41825 20.7402 5.11899 20.7402 6.05161V6.27477C20.7402 6.28582 20.7312 6.29477 20.7202 6.29477C20.7092 6.29477 20.7002 6.28582 20.7002 6.27477V6.05255C20.7002 5.1188 20.7002 4.41969 20.6548 3.86485C20.6095 3.31025 20.519 2.90156 20.3391 2.54833C20.0214 1.92489 19.5145 1.41801 18.8911 1.10035C18.5379 0.920371 18.1292 0.829879 17.5746 0.784566C17.0197 0.739234 16.3206 0.739219 15.3869 0.739219H15.1646C15.1536 0.739219 15.1446 0.730264 15.1446 0.719219ZM10.7109 4.07255C8.98925 4.07255 7.5936 5.46819 7.5936 7.18981C7.5936 8.91142 8.98925 10.3071 10.7109 10.3071C12.4325 10.3071 13.8281 8.91142 13.8281 7.18981C13.8281 5.46819 12.4325 4.07255 10.7109 4.07255ZM7.5536 7.18981C7.5536 5.4461 8.96716 4.03255 10.7109 4.03255C12.4546 4.03255 13.8681 5.4461 13.8681 7.18981C13.8681 8.93351 12.4546 10.3471 10.7109 10.3471C8.96716 10.3471 7.5536 8.93351 7.5536 7.18981ZM7.02222 13.1194C6.07781 13.5727 5.5021 14.1951 5.5021 14.8761C5.5021 15.5571 6.07781 16.1794 7.02222 16.6328C7.96519 17.0854 9.2693 17.3659 10.7109 17.3659C12.1524 17.3659 13.4565 17.0854 14.3995 16.6328C15.3439 16.1794 15.9196 15.5571 15.9196 14.8761C15.9196 14.1951 15.3439 13.5727 14.3995 13.1194C13.4565 12.6668 12.1524 12.3863 10.7109 12.3863C9.2693 12.3863 7.96519 12.6668 7.02222 13.1194ZM7.00491 13.0834C7.95438 12.6276 9.26466 12.3463 10.7109 12.3463C12.1571 12.3463 13.4673 12.6276 14.4168 13.0834C15.3648 13.5384 15.9596 14.1709 15.9596 14.8761C15.9596 15.5812 15.3648 16.2138 14.4168 16.6688C13.4673 17.1246 12.1571 17.4059 10.7109 17.4059C9.26466 17.4059 7.95438 17.1246 7.00491 16.6688C6.05689 16.2138 5.4621 15.5812 5.4621 14.8761C5.4621 14.1709 6.05689 13.5384 7.00491 13.0834ZM0.720195 15.1437C0.731241 15.1437 0.740195 15.1526 0.740195 15.1637V15.3859C0.740195 16.3196 0.740211 17.0187 0.785543 17.5736C0.830856 18.1282 0.921347 18.5369 1.10133 18.8901C1.41899 19.5135 1.92586 20.0204 2.54931 20.3381C2.90254 20.5181 3.31123 20.6086 3.86583 20.6539C4.42067 20.6992 5.11978 20.6992 6.05353 20.6992H6.27575C6.2868 20.6992 6.29575 20.7082 6.29575 20.7192C6.29575 20.7303 6.2868 20.7392 6.27575 20.7392H6.05353C5.12091 20.7392 4.41923 20.7392 3.86257 20.6937C3.3055 20.6482 2.89096 20.5571 2.53115 20.3737C1.90018 20.0522 1.38718 19.5392 1.06569 18.9083C0.882355 18.5485 0.791191 18.1339 0.745676 17.5768C0.700195 17.0202 0.700195 16.3195 0.700195 15.3868V15.1637C0.700195 15.1526 0.70915 15.1437 0.720195 15.1437ZM20.7202 15.1437C20.7312 15.1437 20.7402 15.1526 20.7402 15.1637V15.3859C20.7402 16.3185 20.7402 17.0202 20.6947 17.5768C20.6492 18.1339 20.558 18.5485 20.3747 18.9083C20.0532 19.5392 19.5402 20.0522 18.9092 20.3737C18.5494 20.5571 18.1349 20.6482 17.5778 20.6937C17.0212 20.7392 16.3204 20.7392 15.3878 20.7392H15.1646C15.1536 20.7392 15.1446 20.7303 15.1446 20.7192C15.1446 20.7082 15.1536 20.6992 15.1646 20.6992H15.3869C16.3206 20.6992 17.0197 20.6992 17.5746 20.6539C18.1292 20.6086 18.5379 20.5181 18.8911 20.3381C19.5145 20.0204 20.0214 19.5135 20.3391 18.8901C20.519 18.5369 20.6095 18.1282 20.6548 17.5736C20.7002 17.0187 20.7002 16.3196 20.7002 15.3859V15.1637C20.7002 15.1526 20.7092 15.1437 20.7202 15.1437Z" stroke="white" stroke-opacity="0.66" stroke-width="1.4"/>
</svg>
