<svg width="18" height="18" viewBox="0 0 18 18" fill="none" xmlns="http://www.w3.org/2000/svg">
<path fill-rule="evenodd" clip-rule="evenodd" d="M6.49762 0.739219C3.31788 0.739219 0.740195 3.31691 0.740195 6.49665C0.740195 9.67639 3.31788 12.2541 6.49762 12.2541H16.6719L12.0144 7.59655C12.0066 7.58874 12.0066 7.57608 12.0144 7.56826C12.0222 7.56045 12.0349 7.56045 12.0427 7.56826L16.7343 12.2599C16.7382 12.2638 16.7403 12.2689 16.7402 12.2743C16.7401 12.2797 16.7379 12.2849 16.734 12.2886L12.0423 16.7337C12.0343 16.7413 12.0216 16.741 12.014 16.733C12.0064 16.725 12.0068 16.7123 12.0148 16.7047L16.67 12.2941H6.49762C3.29579 12.2941 0.700195 9.69848 0.700195 6.49665C0.700195 3.29482 3.29579 0.699219 6.49762 0.699219H6.94242C6.95346 0.699219 6.96242 0.708173 6.96242 0.719219C6.96242 0.730264 6.95346 0.739219 6.94242 0.739219H6.49762Z" stroke="white" stroke-opacity="0.66" stroke-width="1.4" stroke-linecap="round" stroke-linejoin="round"/>
</svg>
