<svg width="18" height="18" viewBox="0 0 18 18" fill="none" xmlns="http://www.w3.org/2000/svg">
<path fill-rule="evenodd" clip-rule="evenodd" d="M5.10241 1.24205C5.96761 0.883673 6.89492 0.699219 7.83141 0.699219C8.76789 0.699219 9.69521 0.883673 10.5604 1.24205C11.4256 1.60043 12.2117 2.12571 12.8739 2.7879C13.5361 3.4501 14.0614 4.23624 14.4198 5.10143C14.7782 5.96663 14.9626 6.89395 14.9626 7.83043C14.9626 8.76692 14.7782 9.69423 14.4198 10.5594C14.064 11.4185 13.5436 12.1996 12.8881 12.8588L16.7343 16.7051C16.7421 16.7129 16.7421 16.7256 16.7343 16.7334C16.7265 16.7412 16.7139 16.7412 16.7061 16.7334L12.8598 12.8871C11.5238 14.2156 9.71606 14.9616 7.83141 14.9616C5.94009 14.9616 4.12624 14.2103 2.78888 12.873C1.45152 11.5356 0.700195 9.72175 0.700195 7.83043C0.700195 5.93912 1.45152 4.12526 2.78888 2.7879C3.45107 2.12571 4.23721 1.60043 5.10241 1.24205ZM7.83141 0.739219C6.90018 0.739219 5.97806 0.922638 5.11772 1.27901C4.25737 1.63537 3.47564 2.15771 2.81716 2.81619C1.4873 4.14605 0.740195 5.94972 0.740195 7.83043C0.740195 9.71114 1.4873 11.5148 2.81716 12.8447C4.14702 14.1745 5.9507 14.9216 7.83141 14.9216C9.71211 14.9216 11.5158 14.1745 12.8457 12.8447C13.5041 12.1862 14.0265 11.4045 14.3828 10.5441C14.7392 9.68378 14.9226 8.76166 14.9226 7.83043C14.9226 6.8992 14.7392 5.97709 14.3828 5.11674C14.0265 4.2564 13.5041 3.47467 12.8457 2.81619C12.1872 2.15771 11.4054 1.63537 10.5451 1.27901C9.68475 0.922638 8.76264 0.739219 7.83141 0.739219Z" stroke="white" stroke-opacity="0.66" stroke-width="1.4" stroke-linecap="round" stroke-linejoin="round"/>
</svg>
