<svg width="16" height="16" viewBox="0 0 16 16" fill="none" xmlns="http://www.w3.org/2000/svg">
<path d="M1.24256 0.093017C0.56369 -0.246417 -0.188893 0.399308 0.0431104 1.12218L1.67628 6.19826C1.70839 6.29805 1.76733 6.38708 1.84665 6.45561C1.92597 6.52415 2.02261 6.56955 2.126 6.58683L8.90839 7.71771C9.22669 7.77085 9.22669 8.228 8.90839 8.28115L2.12657 9.41145C2.02308 9.42864 1.92631 9.474 1.84689 9.54254C1.76746 9.61108 1.70843 9.70016 1.67628 9.80003L0.0431104 14.8778C-0.189465 15.6007 0.563119 16.2464 1.24256 15.907L15.5251 8.76687C16.1571 8.45086 16.1571 7.54971 15.5251 7.23313L1.24256 0.093017Z" fill="white" fill-opacity="0.66"/>
</svg>
