<svg width="15" height="22" viewBox="0 0 15 22" fill="none" xmlns="http://www.w3.org/2000/svg">
<path d="M1.72189 20.0852C-0.524809 15.4314 1.32034 10.1255 3.5532 6.40554C3.63069 6.27645 3.61245 6.11191 3.50787 6.0036L3.04736 5.52663C3.03646 5.51535 3.02444 5.50463 3.01212 5.49492C1.72508 4.4797 2.05707 3.13529 3.68555 2.79796L11.5402 0.764165C13.1766 0.425199 14.1584 1.4421 13.8312 3.13693L11.8675 11.2721C11.5402 12.628 10.2311 12.9669 9.24927 11.95L8.52972 11.2048C8.39092 11.061 8.15673 11.0731 8.03486 11.2314C5.29216 14.7951 4.33817 17.7188 3.70124 19.6975C3.69072 19.7302 3.68593 19.7642 3.68438 19.7985C3.64038 20.7745 2.3651 21.0845 1.72189 20.0852Z" stroke="white" stroke-opacity="0.66" stroke-width="1.4" stroke-linejoin="round"/>
</svg>
