<svg width="22" height="22" viewBox="0 0 22 22" fill="none" xmlns="http://www.w3.org/2000/svg">
<path fill-rule="evenodd" clip-rule="evenodd" d="M0.700195 0.719219C0.700195 0.708173 0.70915 0.699219 0.720195 0.699219H5.7202C5.73124 0.699219 5.7402 0.708173 5.7402 0.719219C5.7402 0.730264 5.73124 0.739219 5.7202 0.739219H0.76848L10.7202 10.6909L20.6719 0.739219H15.7202C15.7092 0.739219 15.7002 0.730264 15.7002 0.719219C15.7002 0.708173 15.7092 0.699219 15.7202 0.699219H20.7202C20.7312 0.699219 20.7402 0.708173 20.7402 0.719219V5.71922C20.7402 5.73026 20.7312 5.73922 20.7202 5.73922C20.7092 5.73922 20.7002 5.73026 20.7002 5.71922V0.767504L10.7402 10.7275V20.7192C10.7402 20.7303 10.7312 20.7392 10.7202 20.7392C10.7092 20.7392 10.7002 20.7303 10.7002 20.7192V10.7275L0.740195 0.767503V5.71922C0.740195 5.73026 0.731241 5.73922 0.720195 5.73922C0.70915 5.73922 0.700195 5.73026 0.700195 5.71922V0.719219Z" stroke="white" stroke-opacity="0.66" stroke-width="1.4" stroke-linecap="round" stroke-linejoin="round"/>
</svg>
