<svg width="19" height="18" viewBox="0 0 19 18" fill="none" xmlns="http://www.w3.org/2000/svg">
<path d="M8.72163 0.824926C8.95246 0.357279 9.06788 0.123456 9.22456 0.0487489C9.36089 -0.0162496 9.51927 -0.0162496 9.65559 0.0487489C9.81228 0.123456 9.9277 0.357279 10.1585 0.824925L12.3485 5.2616C12.4167 5.39966 12.4507 5.46869 12.5005 5.52229C12.5446 5.56975 12.5975 5.6082 12.6562 5.63551C12.7226 5.66636 12.7988 5.67749 12.9511 5.69976L17.8498 6.41577C18.3656 6.49117 18.6236 6.52887 18.7429 6.65487C18.8468 6.76449 18.8956 6.91512 18.8758 7.06482C18.8531 7.23689 18.6664 7.41876 18.2929 7.78252L14.7495 11.2338C14.6391 11.3414 14.5839 11.3952 14.5482 11.4592C14.5167 11.5158 14.4964 11.5781 14.4886 11.6425C14.4798 11.7152 14.4928 11.7912 14.5189 11.9432L15.355 16.8179C15.4432 17.3321 15.4872 17.5891 15.4044 17.7417C15.3323 17.8744 15.2041 17.9675 15.0556 17.9951C14.8849 18.0267 14.6541 17.9053 14.1924 17.6625L9.813 15.3594C9.67655 15.2877 9.60833 15.2518 9.53645 15.2377C9.47281 15.2252 9.40735 15.2252 9.34371 15.2377C9.27183 15.2518 9.2036 15.2877 9.06715 15.3594L4.6878 17.6625C4.22609 17.9053 3.99524 18.0267 3.82454 17.9951C3.67602 17.9675 3.54787 17.8744 3.47578 17.7417C3.39291 17.5891 3.43701 17.3321 3.52519 16.8179L4.36126 11.9432C4.38733 11.7912 4.40036 11.7152 4.39154 11.6425C4.38374 11.5781 4.36349 11.5158 4.33194 11.4592C4.2963 11.3952 4.24107 11.3414 4.13062 11.2338L0.587229 7.78252C0.213768 7.41876 0.0270368 7.23689 0.00431406 7.06482C-0.015456 6.91512 0.0333853 6.76449 0.13724 6.65487C0.256605 6.52887 0.514531 6.49117 1.03038 6.41577L5.92906 5.69976C6.08141 5.67749 6.15758 5.66636 6.22391 5.63551C6.28265 5.6082 6.33553 5.56975 6.37962 5.52229C6.42941 5.46869 6.46349 5.39966 6.53164 5.2616L8.72163 0.824926Z" fill="white" fill-opacity="0.66"/>
</svg>
