<svg width="24" height="24" viewBox="0 0 24 24" fill="none" xmlns="http://www.w3.org/2000/svg">
<path fill-rule="evenodd" clip-rule="evenodd" d="M1.22039 1.22039C2.00179 0.438986 3.0616 0 4.16667 0L19.8333 1.90735e-06C20.9384 1.90735e-06 21.9982 0.438988 22.7796 1.22039C23.561 2.00179 24 3.0616 24 4.16667V13.0033C24 13.1856 23.8523 13.3333 23.67 13.3333L17.5 13.3333C16.3949 13.3333 15.3351 13.7723 14.5537 14.5537C14.0249 15.0825 13.653 15.7388 13.4677 16.4503C13.4376 16.5659 13.3521 16.6616 13.2369 16.6932C10.2872 17.5035 7.83262 15.6112 6.6953 13.9293C6.43543 13.545 5.91322 13.4441 5.52892 13.704C5.14462 13.9639 5.04375 14.4861 5.30362 14.8704C6.54511 16.7063 9.34842 19.0733 12.9279 18.4804C13.1366 18.4458 13.3333 18.6023 13.3333 18.8138L13.3333 23.67C13.3333 23.8523 13.1856 24 13.0033 24H4.16667C3.0616 24 2.00179 23.561 1.22039 22.7796C0.438987 21.9982 0 20.9384 0 19.8333V4.16667C2.00395e-06 3.0616 0.438989 2.00179 1.22039 1.22039ZM7.79961 9.6C8.79372 9.6 9.59961 8.79411 9.59961 7.8C9.59961 6.80589 8.79372 6 7.79961 6C6.8055 6 5.99961 6.80589 5.99961 7.8C5.99961 8.79411 6.8055 9.6 7.79961 9.6ZM17.9996 7.8C17.9996 8.79411 17.1937 9.6 16.1996 9.6C15.2055 9.6 14.3996 8.79411 14.3996 7.8C14.3996 6.80589 15.2055 6 16.1996 6C17.1937 6 17.9996 6.80589 17.9996 7.8Z" fill="white" fill-opacity="0.66"/>
<path d="M17.5 15L23.1195 15C23.3593 15 23.517 15.2474 23.3922 15.4522C23.2198 15.7351 23.0142 15.9972 22.7793 16.2327L16.232 22.7793C15.9968 23.0141 15.7349 23.2196 15.4523 23.392C15.2475 23.5169 15 23.3592 15 23.1193V17.5C15 16.837 15.2634 16.2011 15.7322 15.7322C16.2011 15.2634 16.837 15 17.5 15Z" fill="white" fill-opacity="0.66"/>
</svg>
