<svg width="24" height="22" viewBox="0 0 24 22" fill="none" xmlns="http://www.w3.org/2000/svg">
<path fill-rule="evenodd" clip-rule="evenodd" d="M4.58294 3.15113C4.96754 1.8295 6.23971 0.699219 8.27575 0.699219H14.1646C15.5174 0.699219 16.7443 1.00943 17.6335 1.66761C18.5236 2.32639 19.0735 3.33249 19.0735 4.71922C19.0735 4.73026 19.0646 4.73922 19.0535 4.73922C19.0425 4.73922 19.0335 4.73026 19.0335 4.71922C19.0335 3.34452 18.4891 2.35062 17.6097 1.69976C16.7295 1.0483 15.512 0.739219 14.1646 0.739219H8.27575C6.25623 0.739219 5.00063 1.85894 4.62134 3.16231C4.24194 4.46606 4.73826 5.95589 6.22914 6.70133C6.23902 6.70627 6.24302 6.71828 6.23808 6.72816C6.23314 6.73804 6.22113 6.74205 6.21125 6.73711C4.70213 5.98254 4.19845 4.47238 4.58294 3.15113ZM0.700195 10.7192C0.700195 10.7082 0.70915 10.6992 0.720195 10.6992H22.7202C22.7312 10.6992 22.7402 10.7082 22.7402 10.7192C22.7402 10.7303 22.7312 10.7392 22.7202 10.7392H13.6976C14.8993 10.9159 16.1465 11.6627 17.1359 12.6697C18.2727 13.8267 19.0735 15.3314 19.0735 16.7192C19.0735 18.1059 18.5236 19.112 17.6335 19.7708C16.7443 20.429 15.5174 20.7392 14.1646 20.7392H9.27575C7.92304 20.7392 6.69614 20.429 5.80689 19.7708C4.91682 19.112 4.36686 18.1059 4.36686 16.7192C4.36686 16.7082 4.37582 16.6992 4.38686 16.6992C4.39791 16.6992 4.40686 16.7082 4.40686 16.7192C4.40686 18.0939 4.95132 19.0878 5.83068 19.7387C6.71086 20.3901 7.92841 20.6992 9.27575 20.6992H14.1646C15.512 20.6992 16.7295 20.3901 17.6097 19.7387C18.4891 19.0878 19.0335 18.0939 19.0335 16.7192C19.0335 15.3456 18.2399 13.8503 17.1073 12.6977C15.9747 11.545 14.5073 10.7392 13.1646 10.7392H0.720195C0.70915 10.7392 0.700195 10.7303 0.700195 10.7192Z" stroke="white" stroke-opacity="0.66" stroke-width="1.4" stroke-linecap="round" stroke-linejoin="round"/>
</svg>
