<svg width="28" height="22" viewBox="0 0 28 22" fill="none" xmlns="http://www.w3.org/2000/svg">
<path fill-rule="evenodd" clip-rule="evenodd" d="M0.705975 0.705218C0.713742 0.697281 0.726406 0.69721 0.734259 0.70506L7.94242 7.9099L15.1506 0.70506C15.1584 0.69721 15.1711 0.697281 15.1789 0.705218C15.1866 0.713155 15.1866 0.725953 15.1787 0.733803L7.97086 7.93833L15.1787 15.1429C15.1866 15.1507 15.1866 15.1635 15.1789 15.1714C15.1711 15.1794 15.1584 15.1794 15.1506 15.1716L7.94242 7.96676L0.734259 15.1716C0.726406 15.1794 0.713742 15.1794 0.705975 15.1714C0.698208 15.1635 0.698278 15.1507 0.706132 15.1429L7.91398 7.93833L0.706132 0.733803C0.698278 0.725953 0.698208 0.713155 0.705975 0.705218ZM22.2327 11.1982C22.8447 10.8523 23.5571 10.727 24.2505 10.8434C24.9439 10.9598 25.5763 11.3108 26.0418 11.8376L26.0419 11.8378C26.4929 12.3612 26.7402 13.0301 26.7402 13.7136C26.7402 14.6822 26.2152 15.4093 25.5013 15.9835C24.7977 16.5493 23.9081 16.9687 23.15 17.326L23.1175 17.3413C22.353 17.7018 21.8155 18.0608 21.4683 18.5974C21.1233 19.1306 20.9644 19.8423 20.9624 20.9122H26.7202C26.7312 20.9122 26.7402 20.9213 26.7402 20.9325C26.7402 20.9436 26.7312 20.9527 26.7202 20.9527H20.9424C20.9314 20.9527 20.9224 20.9436 20.9224 20.9325C20.9224 19.848 21.0815 19.1215 21.4348 18.5753C21.7882 18.029 22.3341 17.6661 23.1006 17.3047L23.1312 17.2903C23.8905 16.9323 24.7766 16.5146 25.4764 15.9518C26.1852 15.3818 26.7002 14.6651 26.7002 13.7136C26.7002 13.0399 26.4564 12.3805 26.0119 11.8644C25.5525 11.3446 24.9284 10.9982 24.2439 10.8833C23.5595 10.7684 22.8564 10.892 22.2522 11.2334C21.6496 11.5776 21.1907 12.1225 20.9612 12.7675C20.9575 12.778 20.946 12.7835 20.9357 12.7797C20.9253 12.7759 20.9199 12.7643 20.9236 12.7538C21.1564 12.0995 21.6218 11.5471 22.2326 11.1982L22.2327 11.1982Z" stroke="white" stroke-opacity="0.66" stroke-width="1.4" stroke-linecap="round" stroke-linejoin="round"/>
</svg>
