<svg width="28" height="22" viewBox="0 0 28 22" fill="none" xmlns="http://www.w3.org/2000/svg">
<path fill-rule="evenodd" clip-rule="evenodd" d="M22.2327 1.09195C22.8447 0.74984 23.5571 0.625986 24.2505 0.741104C24.9439 0.856222 25.5763 1.20334 26.0418 1.72438L26.0419 1.72457C26.4929 2.24225 26.7402 2.90376 26.7402 3.57975C26.7402 4.53777 26.2152 5.25691 25.5013 5.82477C24.7977 6.38434 23.9081 6.79915 23.15 7.15261L23.1175 7.16773C22.353 7.52426 21.8155 7.87929 21.4683 8.41001C21.1233 8.93743 20.9644 9.64128 20.9624 10.6995H26.7202C26.7312 10.6995 26.7402 10.7084 26.7402 10.7195C26.7402 10.7305 26.7312 10.7395 26.7202 10.7395H20.9424C20.9314 10.7395 20.9224 10.7305 20.9224 10.7195C20.9224 9.64691 21.0815 8.92835 21.4348 8.38813C21.7882 7.84789 22.3341 7.48894 23.1006 7.1315L23.1312 7.11725C23.8905 6.7632 24.7766 6.35008 25.4764 5.79349C26.1852 5.2297 26.7002 4.5209 26.7002 3.57975C26.7002 2.91351 26.4564 2.26135 26.0119 1.75092C25.5525 1.23677 24.9284 0.894174 24.2439 0.780546C23.5595 0.666911 22.8563 0.789178 22.2522 1.12685C21.6496 1.46726 21.1907 2.00614 20.9612 2.64407C20.9575 2.65446 20.946 2.65985 20.9357 2.65612C20.9253 2.65238 20.9199 2.64093 20.9236 2.63054C21.1564 1.98335 21.6218 1.437 22.2326 1.092L22.2327 1.09195ZM0.705975 6.70715C0.713742 6.6993 0.726406 6.69923 0.734259 6.70699L7.94242 13.8328L15.1506 6.70699C15.1584 6.69923 15.1711 6.6993 15.1789 6.70715C15.1866 6.715 15.1866 6.72766 15.1787 6.73542L7.97086 13.8609L15.1787 20.9865C15.1866 20.9942 15.1866 21.0069 15.1789 21.0147C15.1711 21.0226 15.1584 21.0226 15.1506 21.0149L7.94242 13.8891L0.734259 21.0149C0.726406 21.0226 0.713742 21.0226 0.705975 21.0147C0.698208 21.0069 0.698278 20.9942 0.706132 20.9865L7.91398 13.8609L0.706132 6.73542C0.698278 6.72766 0.698208 6.715 0.705975 6.70715Z" stroke="white" stroke-opacity="0.66" stroke-width="1.4" stroke-linecap="round" stroke-linejoin="round"/>
</svg>
