<svg width="20" height="20" viewBox="0 0 20 20" fill="none" xmlns="http://www.w3.org/2000/svg">
<path fill-rule="evenodd" clip-rule="evenodd" d="M5.5202 0.699219H13.9202C14.7595 0.699219 15.3911 0.699219 15.8922 0.740158C16.3937 0.781131 16.7671 0.863213 17.0912 1.02838C17.6595 1.31792 18.1215 1.77992 18.411 2.34817C18.5762 2.67232 18.6583 3.0457 18.6993 3.5472C18.7402 4.04827 18.7402 4.679 18.7402 5.51828V13.9192C18.7402 14.7585 18.7402 15.3902 18.6993 15.8912C18.6583 16.3927 18.5762 16.7661 18.411 17.0903C18.1215 17.6585 17.6595 18.1205 17.0912 18.4101C16.7671 18.5752 16.3937 18.6573 15.8922 18.6983C15.3911 18.7392 14.7604 18.7392 13.9211 18.7392H5.5202C4.68091 18.7392 4.04925 18.7392 3.54817 18.6983C3.04668 18.6573 2.6733 18.5752 2.34914 18.4101C1.78089 18.1205 1.31889 17.6585 1.02936 17.0903C0.864189 16.7661 0.782108 16.3927 0.741134 15.8912C0.700195 15.3902 0.700195 14.7594 0.700195 13.9202V5.51922C0.700195 4.67995 0.700195 4.04827 0.741134 3.5472C0.782108 3.0457 0.864189 2.67232 1.02936 2.34817C1.31889 1.77992 1.78089 1.31792 2.34914 1.02838C2.6733 0.863213 3.04668 0.781131 3.54817 0.740158C4.04924 0.699219 4.68092 0.699219 5.5202 0.699219ZM0.740195 6.73922V12.6992H9.70019V6.73922H0.740195ZM9.70019 6.69922H0.740195V5.51922C0.740195 4.67881 0.740211 4.04971 0.781001 3.55045C0.821773 3.05143 0.903182 2.68391 1.065 2.36633C1.3507 1.8056 1.80658 1.34972 2.3673 1.06402C2.68488 0.902205 3.05241 0.820796 3.55143 0.780025C4.05068 0.739234 4.67979 0.739219 5.5202 0.739219H9.70019V6.69922ZM9.7402 6.73922V12.6992H18.7002V6.73922H9.7402ZM18.7002 6.69922H9.7402V0.739219H13.9202C14.7606 0.739219 15.3897 0.739234 15.889 0.780025C16.388 0.820796 16.7555 0.902205 17.0731 1.06402C17.6338 1.34972 18.0897 1.8056 18.3754 2.36633C18.5372 2.68391 18.6186 3.05143 18.6594 3.55045C18.7002 4.04971 18.7002 4.67881 18.7002 5.51922V6.69922ZM18.7002 12.7392H9.7402V18.6992H13.9202C14.7606 18.6992 15.3897 18.6992 15.889 18.6584C16.388 18.6176 16.7555 18.5362 17.0731 18.3744C17.6338 18.0887 18.0897 17.6328 18.3754 17.0721C18.5372 16.7545 18.6186 16.387 18.6594 15.888C18.7002 15.3887 18.7002 14.7596 18.7002 13.9192V12.7392ZM9.70019 18.6992V12.7392H0.740195V13.9192C0.740195 14.7596 0.740211 15.3887 0.781001 15.888C0.821773 16.387 0.903182 16.7545 1.065 17.0721C1.3507 17.6328 1.80658 18.0887 2.3673 18.3744C2.68488 18.5362 3.05241 18.6176 3.55143 18.6584C4.05068 18.6992 4.67979 18.6992 5.5202 18.6992H9.70019Z" stroke="white" stroke-opacity="0.66" stroke-width="1.4" stroke-linecap="round" stroke-linejoin="round"/>
</svg>
