<svg width="27" height="16" viewBox="0 0 27 16" fill="none" xmlns="http://www.w3.org/2000/svg">
<path d="M2.98735 15.5364C2.94225 15.6708 2.81629 15.7614 2.67447 15.7614H0.330273C0.102699 15.7614 -0.0565715 15.5365 0.0189999 15.3218L5.33547 0.220417C5.38196 0.0883514 5.50673 0 5.64674 0H8.70427C8.84423 0 8.96896 0.0882853 9.0155 0.220281L14.3393 15.3217C14.415 15.5364 14.2557 15.7614 14.0281 15.7614H11.684C11.5422 15.7614 11.4163 15.6709 11.3712 15.5365L7.25662 3.29067C7.24491 3.25581 7.21224 3.23232 7.17547 3.23232C7.13868 3.23232 7.106 3.25583 7.0943 3.29071L2.98735 15.5364ZM3.01191 9.91153C3.01191 9.72928 3.15966 9.58153 3.34191 9.58153H10.9936C11.1759 9.58153 11.3236 9.72928 11.3236 9.91153V11.5449C11.3236 11.7272 11.1759 11.8749 10.9936 11.8749H3.34191C3.15966 11.8749 3.01191 11.7272 3.01191 11.5449V9.91153Z" fill="white" fill-opacity="0.66"/>
<path d="M19.8489 16C19.0998 16 18.4251 15.8666 17.8248 15.5998C17.2296 15.3279 16.7576 14.9277 16.4087 14.3992C16.065 13.8708 15.8931 13.2192 15.8931 12.4444C15.8931 11.7775 16.0162 11.2259 16.2625 10.7898C16.5088 10.3537 16.8448 10.0048 17.2707 9.74315C17.6965 9.48148 18.1763 9.28395 18.7098 9.15055C19.2486 9.01202 19.8052 8.91198 20.3799 8.85041C21.0725 8.77858 21.6343 8.71445 22.0653 8.65801C22.4963 8.59644 22.8093 8.50409 23.0042 8.38095C23.2043 8.25268 23.3044 8.05515 23.3044 7.78836V7.74218C23.3044 7.16242 23.1325 6.71348 22.7887 6.39538C22.445 6.07728 21.9499 5.91823 21.3034 5.91823C20.621 5.91823 20.0797 6.06702 19.6795 6.3646C19.3686 6.59885 19.1371 6.86647 18.985 7.16748C18.9136 7.30891 18.7657 7.40283 18.6088 7.38056L16.6528 7.10279C16.4546 7.07464 16.326 6.87735 16.3956 6.68962C16.6035 6.12838 16.9029 5.64807 17.2938 5.24868C17.7658 4.76126 18.343 4.39699 19.0254 4.15584C19.7078 3.90957 20.462 3.78644 21.288 3.78644C21.8575 3.78644 22.4245 3.85314 22.9888 3.98653C23.5532 4.11993 24.0688 4.34055 24.5357 4.64839C25.0026 4.9511 25.3772 5.36412 25.6593 5.88745C25.9467 6.41077 26.0903 7.06493 26.0903 7.84993V15.4314C26.0903 15.6137 25.9426 15.7614 25.7603 15.7614H23.7421C23.5598 15.7614 23.4121 15.6137 23.4121 15.4314V14.1949C23.4121 14.1633 23.3864 14.1376 23.3547 14.1376C23.3332 14.1376 23.3136 14.1496 23.3035 14.1686C23.1353 14.4853 22.9022 14.7828 22.604 15.0611C22.3013 15.3433 21.9191 15.5716 21.4573 15.746C21.0007 15.9153 20.4645 16 19.8489 16ZM20.5723 13.9529C21.1315 13.9529 21.6164 13.8426 22.0268 13.6219C22.4373 13.3962 22.7528 13.0986 22.9734 12.7292C23.1992 12.3598 23.3121 11.957 23.3121 11.5209V10.62C23.3121 10.4238 23.054 10.2729 22.8657 10.328C22.6605 10.3896 22.4296 10.4435 22.173 10.4897C21.9165 10.5358 21.6625 10.5769 21.4111 10.6128C21.1597 10.6487 20.9417 10.6795 20.757 10.7051C20.3414 10.7616 19.9694 10.8539 19.6411 10.9822C19.3127 11.1105 19.0536 11.29 18.8638 11.5209C18.6739 11.7467 18.579 12.0391 18.579 12.3983C18.579 12.9113 18.7663 13.2987 19.1408 13.5604C19.5154 13.822 19.9925 13.9529 20.5723 13.9529Z" fill="white" fill-opacity="0.66"/>
</svg>
