<svg width="22" height="8" viewBox="0 0 22 8" fill="none" xmlns="http://www.w3.org/2000/svg">
<path d="M20.6829 3.74425L20.6509 3.69922L20.6178 3.65523M20.6829 3.74425C20.7035 3.72269 20.7063 3.68447 20.6881 3.66017C20.6698 3.63588 20.6384 3.63367 20.6178 3.65523M20.6829 3.74425L20.68 3.74726L20.6688 3.75901L20.6253 3.80412C20.5875 3.84329 20.5325 3.89996 20.4637 3.97005C20.3261 4.11022 20.1333 4.30413 19.9125 4.51908C19.4714 4.9485 18.9166 5.46366 18.4663 5.80165C17.0365 6.87478 15.6992 6.88384 14.4127 6.36117C13.1315 5.84067 11.8994 4.79216 10.675 3.75024L10.6711 3.74696C9.44236 2.70131 8.22132 1.66284 6.95538 1.14853C5.69342 0.635837 4.38826 0.644716 2.98745 1.69611C2.54266 2.02995 1.99183 2.54117 1.55111 2.97018C1.331 3.18445 1.1388 3.37777 1.00164 3.51751C0.933059 3.58738 0.878251 3.64384 0.840603 3.68282L0.79743 3.72767L0.786294 3.73929L0.782548 3.74322M20.6178 3.65523L20.6141 3.65914L20.603 3.67077L20.5598 3.71561C20.5221 3.75459 20.4673 3.81106 20.3988 3.88093C20.2616 4.02067 20.0694 4.21399 19.8493 4.42826C19.4086 4.85727 18.8577 5.36848 18.4129 5.70233C17.0121 6.75372 15.707 6.7626 14.445 6.24991C13.1791 5.7356 11.958 4.69713 10.7293 3.65148L10.7254 3.64819C9.50102 2.60628 8.26889 1.55776 6.98772 1.03727C5.70121 0.514603 4.36388 0.52366 2.93412 1.59679C2.48381 1.93477 1.929 2.44994 1.48786 2.87936C1.26705 3.09431 1.07427 3.28821 0.936681 3.42839C0.867883 3.49848 0.812872 3.55515 0.775046 3.59432L0.731616 3.63943L0.720359 3.65118L0.717484 3.65419M0.717484 3.65419L0.749459 3.69913L0.782548 3.74322M0.717484 3.65419C0.696932 3.67575 0.694073 3.71396 0.71231 3.73826C0.730549 3.76256 0.761995 3.76478 0.782548 3.74322" stroke="white" stroke-opacity="0.66" stroke-width="1.4" stroke-linecap="round" stroke-linejoin="round"/>
</svg>
