<svg width="21" height="21" viewBox="0 0 21 21" fill="none" xmlns="http://www.w3.org/2000/svg">
<path fill-rule="evenodd" clip-rule="evenodd" d="M13.8415 0.739219C10.5389 0.739219 7.86152 3.41656 7.86152 6.71922C7.86152 7.20865 7.92031 7.68432 8.03121 8.13957C8.0907 8.38377 8.13557 8.56796 8.16412 8.70998C8.19263 8.85182 8.20538 8.95382 8.19989 9.03391C8.18863 9.19841 8.16377 9.28714 8.08791 9.43354C8.01522 9.5738 7.87676 9.71226 7.60756 9.98146L1.35566 16.2334C0.535041 17.054 0.535042 18.3845 1.35566 19.2051C2.17627 20.0257 3.50676 20.0257 4.32737 19.2051L10.5793 12.9532C10.8485 12.684 10.9869 12.5455 11.1272 12.4728C11.2736 12.397 11.3623 12.3721 11.5268 12.3608C11.6069 12.3554 11.7089 12.3681 11.8508 12.3966C11.9927 12.4252 12.1764 12.4699 12.4206 12.5294C12.8758 12.6403 13.3521 12.6992 13.8415 12.6992C17.1442 12.6992 19.8215 10.0219 19.8215 6.71922C19.8215 5.85198 19.6369 5.02792 19.3049 4.28412L16.487 7.10199C16.2896 7.29944 16.1399 7.44908 16.0118 7.55789C15.8833 7.66697 15.7744 7.73685 15.6567 7.77508C15.4519 7.84165 15.2312 7.84165 15.0263 7.77508C14.9086 7.73685 14.7998 7.66697 14.6713 7.55789C14.5431 7.44908 14.3941 7.30009 14.1966 7.10263L13.4587 6.36473C13.2613 6.16729 13.1117 6.01764 13.0028 5.88947C12.8938 5.76098 12.8239 5.65209 12.7857 5.53442C12.7191 5.32956 12.7191 5.10888 12.7857 4.90402C12.8239 4.78635 12.8938 4.67746 13.0028 4.54896C13.1117 4.42079 13.2606 4.27181 13.4581 4.07436L16.2766 1.25584C15.5328 0.923813 14.7088 0.739219 13.8415 0.739219ZM7.82152 6.71922C7.82152 3.39446 10.5168 0.699219 13.8415 0.699219C14.7248 0.699219 15.5637 0.889471 16.3195 1.23125C16.3255 1.23396 16.3298 1.23943 16.3309 1.24589C16.3321 1.25235 16.33 1.25897 16.3254 1.26362L13.487 4.10199C13.2888 4.30023 13.141 4.44807 13.0333 4.57485C12.9259 4.70145 12.8596 4.80573 12.8237 4.91638C12.7597 5.11321 12.7597 5.32523 12.8237 5.52206C12.8596 5.63271 12.9259 5.73699 13.0333 5.86359C13.141 5.99036 13.2888 6.13821 13.487 6.33645L14.2243 7.0737C14.4225 7.27195 14.5704 7.41977 14.6971 7.52739C14.8237 7.63487 14.928 7.70109 15.0387 7.73704C15.2355 7.80099 15.4475 7.80099 15.6444 7.73704C15.755 7.70109 15.8593 7.63487 15.9859 7.52739C16.1127 7.41977 16.2605 7.27195 16.4587 7.07371L19.2971 4.23533C19.3018 4.23069 19.3084 4.22862 19.3148 4.2298C19.3213 4.23098 19.3268 4.23525 19.3295 4.24123C19.6713 4.99699 19.8615 5.83591 19.8615 6.71922C19.8615 10.044 17.1663 12.7392 13.8415 12.7392C13.3489 12.7392 12.87 12.68 12.4117 12.5684C12.1669 12.5088 11.984 12.4642 11.8429 12.4358C11.7015 12.4074 11.604 12.3957 11.5296 12.4007C11.3705 12.4116 11.2871 12.435 11.1456 12.5083C11.0116 12.5778 10.8777 12.7113 10.6035 12.9855L4.35566 19.2334C3.51942 20.0696 2.16361 20.0696 1.32737 19.2334C0.491136 18.3971 0.491136 17.0413 1.32737 16.2051L7.57519 9.95726C7.84939 9.68306 7.98293 9.54918 8.05239 9.41513C8.12573 9.27361 8.1491 9.19021 8.15999 9.03118C8.16508 8.95677 8.15332 8.85922 8.1249 8.71786C8.09653 8.57675 8.05197 8.39379 7.99235 8.14904C7.8807 7.69072 7.82152 7.21187 7.82152 6.71922Z" stroke="white" stroke-opacity="0.66" stroke-width="1.4" stroke-linecap="round" stroke-linejoin="round"/>
</svg>
