<svg width="22" height="24" viewBox="0 0 22 24" fill="none" xmlns="http://www.w3.org/2000/svg">
<path fill-rule="evenodd" clip-rule="evenodd" d="M5.73434 0.705077C5.74215 0.712887 5.74215 0.72555 5.73434 0.733361L0.768479 5.69922H20.7202C20.7312 5.69922 20.7402 5.70817 20.7402 5.71922C20.7402 5.73026 20.7312 5.73922 20.7202 5.73922H0.768479L5.73434 10.7051C5.74215 10.7129 5.74215 10.7256 5.73434 10.7334C5.72653 10.7412 5.71386 10.7412 5.70605 10.7334L0.706053 5.73336C0.698243 5.72555 0.698243 5.71289 0.706053 5.70508L5.70605 0.705077C5.71386 0.697266 5.72653 0.697266 5.73434 0.705077ZM15.7061 13.2051C15.7139 13.1973 15.7265 13.1973 15.7343 13.2051L20.7343 18.2051C20.7421 18.2129 20.7421 18.2256 20.7343 18.2334L15.7343 23.2334C15.7265 23.2412 15.7139 23.2412 15.7061 23.2334C15.6982 23.2256 15.6982 23.2129 15.7061 23.2051L20.6719 18.2392H0.720195C0.70915 18.2392 0.700195 18.2303 0.700195 18.2192C0.700195 18.2082 0.70915 18.1992 0.720195 18.1992H20.6719L15.7061 13.2334C15.6982 13.2256 15.6982 13.2129 15.7061 13.2051Z" stroke="white" stroke-opacity="0.66" stroke-width="1.4" stroke-linecap="round" stroke-linejoin="round"/>
</svg>
