<svg width="18" height="19" viewBox="0 0 18 19" fill="none" xmlns="http://www.w3.org/2000/svg">
<path fill-rule="evenodd" clip-rule="evenodd" d="M2.7202 0.699219C2.73124 0.699219 2.7402 0.708173 2.7402 0.719219V7.71922C2.7402 11.0219 5.41753 13.6992 8.7202 13.6992C12.0229 13.6992 14.7002 11.0219 14.7002 7.71922V0.719219C14.7002 0.708173 14.7092 0.699219 14.7202 0.699219C14.7312 0.699219 14.7402 0.708173 14.7402 0.719219V7.71922C14.7402 11.044 12.0449 13.7392 8.7202 13.7392C5.39544 13.7392 2.7002 11.044 2.7002 7.71922V0.719219C2.7002 0.708173 2.70915 0.699219 2.7202 0.699219ZM0.700195 17.7192C0.700195 17.7082 0.70915 17.6992 0.720195 17.6992H16.7202C16.7312 17.6992 16.7402 17.7082 16.7402 17.7192C16.7402 17.7303 16.7312 17.7392 16.7202 17.7392H0.720195C0.70915 17.7392 0.700195 17.7303 0.700195 17.7192Z" stroke="white" stroke-opacity="0.66" stroke-width="1.4" stroke-linecap="round" stroke-linejoin="round"/>
</svg>
