<svg width="24" height="15" viewBox="0 0 24 15" fill="none" xmlns="http://www.w3.org/2000/svg">
<path d="M0 3.23589V11.4298C0 13.219 1.45278 14.6657 3.23628 14.6657H13.0956C13.9537 14.6655 14.7767 14.3245 15.3836 13.7177C15.9904 13.1109 16.3315 12.288 16.3318 11.4298V3.23589C16.3318 1.44674 14.8791 1.64089e-05 13.0956 1.64089e-05H3.24152C1.45278 -0.00563014 0 1.44674 0 3.23589ZM21.8801 1.04301L18.1671 4.10506C18.0042 4.23956 17.8731 4.40834 17.7829 4.59936C17.6928 4.79039 17.6459 4.99894 17.6456 5.21017V9.44992C17.6451 9.65934 17.6905 9.86633 17.7786 10.0563C17.8668 10.2463 17.9955 10.4146 18.1558 10.5494L21.8688 13.6675C22.7158 14.3741 24 13.774 24 12.6749V2.04124C24.0056 0.947829 22.7267 0.342036 21.8801 1.04301Z" fill="white" fill-opacity="0.66"/>
</svg>
