<svg width="26" height="20" viewBox="0 0 26 20" fill="none" xmlns="http://www.w3.org/2000/svg">
<path d="M0 10C0 9.07952 0.746192 8.33333 1.66667 8.33333C2.58714 8.33333 3.33333 9.07952 3.33333 10C3.33333 10.9205 2.58714 11.6667 1.66667 11.6667C0.746192 11.6667 0 10.9205 0 10Z" fill="white" fill-opacity="0.66"/>
<path d="M5.66732 5C5.66732 4.07952 6.41351 3.33333 7.33398 3.33333C8.25446 3.33333 9.00065 4.07953 9.00065 5V15C9.00065 15.9205 8.25446 16.6667 7.33398 16.6667C6.41351 16.6667 5.66732 15.9205 5.66732 15V5Z" fill="white" fill-opacity="0.66"/>
<path d="M11.333 1.66667C11.333 0.746193 12.0792 0 12.9997 0C13.9201 0 14.6663 0.746192 14.6663 1.66667V18.3333C14.6663 19.2538 13.9201 20 12.9997 20C12.0792 20 11.333 19.2538 11.333 18.3333V1.66667Z" fill="white" fill-opacity="0.66"/>
<path d="M17.0003 6.66667C17.0003 5.74619 17.7465 5 18.667 5C19.5875 5 20.3337 5.74619 20.3337 6.66667V13.3333C20.3337 14.2538 19.5875 15 18.667 15C17.7465 15 17.0003 14.2538 17.0003 13.3333V6.66667Z" fill="white" fill-opacity="0.66"/>
<path d="M22.666 10C22.666 9.07952 23.4122 8.33333 24.3327 8.33333C25.2532 8.33333 25.9993 9.07952 25.9993 10C25.9993 10.9205 25.2532 11.6667 24.3327 11.6667C23.4122 11.6667 22.666 10.9205 22.666 10Z" fill="white" fill-opacity="0.66"/>
</svg>
